Unna-Bold.ufo
<glyph name="numbersign" format="1">
  <advance width="504"/>
  <unicode hex="0023"/>
  <outline>
    <contour>
      <point x="110" y="190" type="line"/>
      <point x="51" y="-9" type="line"/>
      <point x="101" y="-9" type="line"/>
      <point x="160" y="190" type="line"/>
      <point x="264" y="190" type="line"/>
      <point x="205" y="-9" type="line"/>
      <point x="255" y="-9" type="line"/>
      <point x="314" y="190" type="line"/>
      <point x="410" y="190" type="line"/>
      <point x="425" y="239" type="line"/>
      <point x="329" y="239" type="line"/>
      <point x="377" y="401" type="line"/>
      <point x="474" y="401" type="line"/>
      <point x="488" y="450" type="line"/>
      <point x="392" y="450" type="line"/>
      <point x="449" y="639" type="line"/>
      <point x="399" y="639" type="line"/>
      <point x="341" y="450" type="line"/>
      <point x="237" y="450" type="line"/>
      <point x="295" y="639" type="line"/>
      <point x="245" y="639" type="line"/>
      <point x="187" y="450" type="line"/>
      <point x="92" y="450" type="line"/>
      <point x="78" y="401" type="line"/>
      <point x="173" y="401" type="line"/>
      <point x="124" y="239" type="line"/>
      <point x="30" y="239" type="line"/>
      <point x="16" y="190" type="line"/>
    </contour>
    <contour>
      <point x="223" y="401" type="line"/>
      <point x="327" y="401" type="line"/>
      <point x="279" y="239" type="line"/>
      <point x="174" y="239" type="line"/>
    </contour>
  </outline>
</glyph>
<glyph name="quotesingle" format="1">
  <advance width="134"/>
  <unicode hex="0027"/>
  <outline>
    <contour>
      <point x="9" y="540"/>
      <point x="49" y="491"/>
      <point x="49" y="431" type="curve" smooth="yes"/>
      <point x="49" y="417"/>
      <point x="54" y="409"/>
      <point x="67" y="409" type="curve" smooth="yes"/>
      <point x="80" y="409"/>
      <point x="85" y="417"/>
      <point x="85" y="431" type="curve" smooth="yes"/>
      <point x="85" y="491"/>
      <point x="125" y="540"/>
      <point x="125" y="580" type="curve" smooth="yes"/>
      <point x="125" y="617"/>
      <point x="104" y="640"/>
      <point x="67" y="640" type="curve" smooth="yes"/>
      <point x="30" y="640"/>
      <point x="9" y="617"/>
      <point x="9" y="580" type="curve" smooth="yes"/>
    </contour>
  </outline>
</glyph>
<glyph name="asterisk" format="1">
  <advance width="338"/>
  <unicode hex="002A"/>
  <outline>
    <contour>
      <point x="258" y="541"/>
      <point x="253" y="508"/>
      <point x="223" y="508" type="curve" smooth="yes"/>
      <point x="217" y="508"/>
      <point x="212" y="510"/>
      <point x="209" y="514" type="curve"/>
      <point x="206" y="518"/>
      <point x="207" y="525"/>
      <point x="210" y="531" type="curve" smooth="yes"/>
      <point x="225" y="557"/>
      <point x="256" y="545"/>
      <point x="269" y="568" type="curve"/>
      <point x="272" y="573"/>
      <point x="274" y="578"/>
      <point x="274" y="584" type="curve" smooth="yes"/>
      <point x="274" y="596"/>
      <point x="265" y="609"/>
      <point x="243" y="621" type="curve" smooth="yes"/>
      <point x="228" y="629"/>
      <point x="217" y="634"/>
      <point x="209" y="634" type="curve" smooth="yes"/>
      <point x="199" y="634"/>
      <point x="191" y="628"/>
      <point x="185" y="617" type="curve" smooth="yes"/>
      <point x="174" y="600"/>
      <point x="187" y="583"/>
      <point x="187" y="565" type="curve" smooth="yes"/>
      <point x="187" y="559"/>
      <point x="186" y="553"/>
      <point x="182" y="547" type="curve" smooth="yes"/>
      <point x="179" y="541"/>
      <point x="174" y="538"/>
      <point x="169" y="538" type="curve"/>
      <point x="164" y="538"/>
      <point x="159" y="541"/>
      <point x="156" y="547" type="curve" smooth="yes"/>
      <point x="144" y="567"/>
      <point x="157" y="584"/>
      <point x="157" y="602" type="curve" smooth="yes"/>
      <point x="157" y="607"/>
      <point x="156" y="612"/>
      <point x="153" y="617" type="curve" smooth="yes"/>
      <point x="148" y="626"/>
      <point x="140" y="632"/>
      <point x="128" y="632" type="curve" smooth="yes"/>
      <point x="119" y="632"/>
      <point x="108" y="629"/>
      <point x="95" y="621" type="curve" smooth="yes"/>
      <point x="73" y="609"/>
      <point x="63" y="598"/>
      <point x="63" y="586" type="curve" smooth="yes"/>
      <point x="63" y="580"/>
      <point x="65" y="575"/>
      <point x="69" y="568" type="curve" smooth="yes"/>
      <point x="82" y="545"/>
      <point x="113" y="557"/>
      <point x="128" y="531" type="curve" smooth="yes"/>
      <point x="130" y="528"/>
      <point x="132" y="522"/>
      <point x="129" y="514" type="curve"/>
      <point x="126" y="510"/>
      <point x="121" y="508"/>
      <point x="115" y="508" type="curve" smooth="yes"/>
      <point x="85" y="508"/>
      <point x="80" y="541"/>
      <point x="53" y="541" type="curve" smooth="yes"/>
      <point x="34" y="541"/>
      <point x="20" y="528"/>
      <point x="20" y="492" type="curve" smooth="yes"/>
      <point x="20" y="456"/>
      <point x="29" y="443"/>
      <point x="53" y="443" type="curve" smooth="yes"/>
      <point x="80" y="443"/>
      <point x="85" y="476"/>
      <point x="115" y="476" type="curve" smooth="yes"/>
      <point x="121" y="476"/>
      <point x="126" y="474"/>
      <point x="129" y="470" type="curve"/>
      <point x="132" y="466"/>
      <point x="131" y="459"/>
      <point x="128" y="453" type="curve" smooth="yes"/>
      <point x="113" y="427"/>
      <point x="82" y="439"/>
      <point x="69" y="416" type="curve"/>
      <point x="66" y="411"/>
      <point x="64" y="406"/>
      <point x="64" y="400" type="curve" smooth="yes"/>
      <point x="64" y="388"/>
      <point x="73" y="375"/>
      <point x="95" y="363" type="curve" smooth="yes"/>
      <point x="110" y="355"/>
      <point x="121" y="350"/>
      <point x="129" y="350" type="curve" smooth="yes"/>
      <point x="139" y="350"/>
      <point x="147" y="356"/>
      <point x="153" y="367" type="curve" smooth="yes"/>
      <point x="164" y="384"/>
      <point x="151" y="401"/>
      <point x="151" y="419" type="curve" smooth="yes"/>
      <point x="151" y="425"/>
      <point x="152" y="431"/>
      <point x="156" y="437" type="curve" smooth="yes"/>
      <point x="159" y="443"/>
      <point x="164" y="446"/>
      <point x="169" y="446" type="curve"/>
      <point x="174" y="446"/>
      <point x="179" y="443"/>
      <point x="182" y="437" type="curve" smooth="yes"/>
      <point x="194" y="417"/>
      <point x="181" y="400"/>
      <point x="181" y="382" type="curve" smooth="yes"/>
      <point x="181" y="377"/>
      <point x="182" y="372"/>
      <point x="185" y="367" type="curve" smooth="yes"/>
      <point x="190" y="358"/>
      <point x="198" y="352"/>
      <point x="210" y="352" type="curve" smooth="yes"/>
      <point x="219" y="352"/>
      <point x="230" y="355"/>
      <point x="244" y="363" type="curve" smooth="yes"/>
      <point x="265" y="375"/>
      <point x="275" y="386"/>
      <point x="275" y="398" type="curve" smooth="yes"/>
      <point x="275" y="403"/>
      <point x="273" y="409"/>
      <point x="269" y="416" type="curve" smooth="yes"/>
      <point x="256" y="439"/>
      <point x="225" y="427"/>
      <point x="210" y="453" type="curve" smooth="yes"/>
      <point x="208" y="456"/>
      <point x="206" y="464"/>
      <point x="209" y="470" type="curve"/>
      <point x="212" y="474"/>
      <point x="217" y="476"/>
      <point x="223" y="476" type="curve" smooth="yes"/>
      <point x="253" y="476"/>
      <point x="258" y="443"/>
      <point x="285" y="443" type="curve" smooth="yes"/>
      <point x="304" y="443"/>
      <point x="318" y="456"/>
      <point x="318" y="492" type="curve" smooth="yes"/>
      <point x="318" y="528"/>
      <point x="309" y="541"/>
      <point x="285" y="541" type="curve" smooth="yes"/>
    </contour>
  </outline>
</glyph>
<glyph name="plus" format="1">
  <advance width="460"/>
  <unicode hex="002B"/>
  <outline>
    <contour>
      <point x="201" y="254" type="line"/>
      <point x="201" y="73" type="line"/>
      <point x="260" y="73" type="line"/>
      <point x="260" y="254" type="line"/>
      <point x="440" y="254" type="line"/>
      <point x="440" y="308" type="line"/>
      <point x="260" y="308" type="line"/>
      <point x="260" y="488" type="line"/>
      <point x="201" y="488" type="line"/>
      <point x="201" y="308" type="line"/>
      <point x="20" y="308" type="line"/>
      <point x="20" y="254" type="line"/>
    </contour>
  </outline>
</glyph>
<glyph name="period" format="1">
  <advance width="283"/>
  <unicode hex="002E"/>
  <outline>
    <contour>
      <point x="40" y="20"/>
      <point x="82" y="-10"/>
      <point x="141" y="-10" type="curve" smooth="yes"/>
      <point x="201" y="-10"/>
      <point x="243" y="20"/>
      <point x="243" y="71" type="curve" smooth="yes"/>
      <point x="243" y="120"/>
      <point x="201" y="151"/>
      <point x="141" y="151" type="curve" smooth="yes"/>
      <point x="82" y="151"/>
      <point x="40" y="120"/>
      <point x="40" y="71" type="curve" smooth="yes"/>
    </contour>
  </outline>
</glyph>
<glyph name="slash" format="1">
  <advance width="257"/>
  <unicode hex="002F"/>
  <outline>
    <contour>
      <point x="44" y="-7" type="line"/>
      <point x="262" y="624" type="line"/>
      <point x="214" y="635" type="line"/>
      <point x="-5" y="6" type="line"/>
    </contour>
  </outline>
</glyph>
<glyph name="zero" format="1">
  <advance width="540"/>
  <unicode hex="0030"/>
  <outline>
    <contour>
      <point x="15" y="106"/>
      <point x="119" y="-10"/>
      <point x="270" y="-10" type="curve" smooth="yes"/>
      <point x="418" y="-10"/>
      <point x="525" y="102"/>
      <point x="525" y="297" type="curve" smooth="yes"/>
      <point x="525" y="494"/>
      <point x="416" y="607"/>
      <point x="270" y="607" type="curve" smooth="yes"/>
      <point x="126" y="607"/>
      <point x="15" y="497"/>
      <point x="15" y="297" type="curve" smooth="yes"/>
    </contour>
    <contour>
      <point x="164" y="509"/>
      <point x="191" y="573"/>
      <point x="270" y="573" type="curve" smooth="yes"/>
      <point x="350" y="573"/>
      <point x="377" y="516"/>
      <point x="377" y="298" type="curve" smooth="yes"/>
      <point x="377" y="86"/>
      <point x="350" y="27"/>
      <point x="270" y="27" type="curve" smooth="yes"/>
      <point x="191" y="27"/>
      <point x="164" y="81"/>
      <point x="164" y="298" type="curve" smooth="yes"/>
    </contour>
  </outline>
</glyph>
<glyph name="two" format="1">
  <advance width="497"/>
  <unicode hex="0032"/>
  <outline>
    <contour>
      <point x="116" y="607"/>
      <point x="35" y="548"/>
      <point x="35" y="478" type="curve" smooth="yes"/>
      <point x="35" y="438"/>
      <point x="60" y="403"/>
      <point x="110" y="403" type="curve" smooth="yes"/>
      <point x="147" y="403"/>
      <point x="176" y="420"/>
      <point x="176" y="456" type="curve" smooth="yes"/>
      <point x="176" y="476"/>
      <point x="167" y="498"/>
      <point x="167" y="518" type="curve" smooth="yes"/>
      <point x="167" y="550"/>
      <point x="193" y="570"/>
      <point x="226" y="570" type="curve" smooth="yes"/>
      <point x="270" y="570"/>
      <point x="305" y="542"/>
      <point x="305" y="465" type="curve" smooth="yes"/>
      <point x="305" y="348"/>
      <point x="233" y="271"/>
      <point x="162" y="205" type="curve" smooth="yes"/>
      <point x="39" y="91" type="line"/>
      <point x="42" y="0" type="line"/>
      <point x="382" y="0" type="line" smooth="yes"/>
      <point x="402" y="0"/>
      <point x="437" y="-1"/>
      <point x="443" y="-3" type="curve"/>
      <point x="444" y="21"/>
      <point x="450" y="103"/>
      <point x="464" y="170" type="curve"/>
      <point x="424" y="170" type="line"/>
      <point x="416" y="121"/>
      <point x="384" y="106"/>
      <point x="314" y="106" type="curve" smooth="yes"/>
      <point x="81" y="106" type="line"/>
      <point x="81" y="78" type="line"/>
      <point x="255" y="199" type="line" smooth="yes"/>
      <point x="392" y="295"/>
      <point x="454" y="359"/>
      <point x="454" y="451" type="curve" smooth="yes"/>
      <point x="454" y="557"/>
      <point x="358" y="607"/>
      <point x="235" y="607" type="curve" smooth="yes"/>
    </contour>
  </outline>
</glyph>
<glyph name="six" format="1">
  <advance width="505"/>
  <unicode hex="0036"/>
  <outline>
    <contour>
      <point x="25" y="113"/>
      <point x="74" y="-11"/>
      <point x="263" y="-11" type="curve" smooth="yes"/>
      <point x="400" y="-11"/>
      <point x="492" y="75"/>
      <point x="492" y="193" type="curve" smooth="yes"/>
      <point x="492" y="321"/>
      <point x="415" y="393"/>
      <point x="272" y="393" type="curve" smooth="yes"/>
      <point x="208" y="393"/>
      <point x="155" y="360"/>
      <point x="136" y="314" type="curve"/>
      <point x="171" y="301" type="line"/>
      <point x="170" y="444"/>
      <point x="196" y="568"/>
      <point x="287" y="568" type="curve" smooth="yes"/>
      <point x="327" y="568"/>
      <point x="340" y="548"/>
      <point x="340" y="531" type="curve" smooth="yes"/>
      <point x="340" y="514"/>
      <point x="331" y="500"/>
      <point x="331" y="481" type="curve" smooth="yes"/>
      <point x="331" y="450"/>
      <point x="357" y="432"/>
      <point x="401" y="432" type="curve" smooth="yes"/>
      <point x="438" y="432"/>
      <point x="469" y="455"/>
      <point x="469" y="499" type="curve" smooth="yes"/>
      <point x="469" y="559"/>
      <point x="398" y="607"/>
      <point x="296" y="607" type="curve" smooth="yes"/>
      <point x="87" y="607"/>
      <point x="25" y="447"/>
      <point x="25" y="260" type="curve" smooth="yes"/>
    </contour>
    <contour>
      <point x="170" y="282"/>
      <point x="171" y="360"/>
      <point x="261" y="360" type="curve" smooth="yes"/>
      <point x="334" y="360"/>
      <point x="346" y="269"/>
      <point x="346" y="193" type="curve" smooth="yes"/>
      <point x="346" y="79"/>
      <point x="327" y="21"/>
      <point x="261" y="21" type="curve" smooth="yes"/>
      <point x="196" y="21"/>
      <point x="170" y="106"/>
      <point x="170" y="193" type="curve" smooth="yes"/>
    </contour>
  </outline>
</glyph>
<glyph name="eight" format="1">
  <advance width="522"/>
  <unicode hex="0038"/>
  <outline>
    <contour>
      <point x="399" y="345"/>
      <point x="480" y="412"/>
      <point x="480" y="483" type="curve" smooth="yes"/>
      <point x="480" y="568"/>
      <point x="388" y="607"/>
      <point x="269" y="607" type="curve" smooth="yes"/>
      <point x="144" y="607"/>
      <point x="42" y="559"/>
      <point x="42" y="454" type="curve" smooth="yes"/>
      <point x="42" y="368"/>
      <point x="112" y="321"/>
      <point x="189" y="279" type="curve" smooth="yes"/>
      <point x="274" y="233"/>
      <point x="367" y="192"/>
      <point x="367" y="110" type="curve" smooth="yes"/>
      <point x="367" y="56"/>
      <point x="323" y="26"/>
      <point x="263" y="26" type="curve" smooth="yes"/>
      <point x="184" y="26"/>
      <point x="139" y="76"/>
      <point x="139" y="142" type="curve" smooth="yes"/>
      <point x="139" y="192"/>
      <point x="174" y="248"/>
      <point x="220" y="274" type="curve"/>
      <point x="190" y="300" type="line"/>
      <point x="94" y="261"/>
      <point x="22" y="213"/>
      <point x="22" y="131" type="curve" smooth="yes"/>
      <point x="22" y="26"/>
      <point x="116" y="-10"/>
      <point x="250" y="-10" type="curve" smooth="yes"/>
      <point x="381" y="-10"/>
      <point x="503" y="44"/>
      <point x="503" y="158" type="curve" smooth="yes"/>
      <point x="503" y="257"/>
      <point x="413" y="310"/>
      <point x="328" y="357" type="curve" smooth="yes"/>
      <point x="250" y="400"/>
      <point x="176" y="438"/>
      <point x="176" y="497" type="curve" smooth="yes"/>
      <point x="176" y="538"/>
      <point x="213" y="570"/>
      <point x="274" y="570" type="curve" smooth="yes"/>
      <point x="334" y="570"/>
      <point x="368" y="536"/>
      <point x="368" y="477" type="curve" smooth="yes"/>
      <point x="368" y="432"/>
      <point x="347" y="383"/>
      <point x="302" y="356" type="curve"/>
      <point x="329" y="336" type="line"/>
    </contour>
  </outline>
</glyph>
<glyph name="greater" format="1">
  <advance width="460"/>
  <unicode hex="003E"/>
  <outline>
    <contour>
      <point x="406" y="207" type="line"/>
      <point x="406" y="231" type="line"/>
      <point x="54" y="442" type="line"/>
      <point x="54" y="383" type="line"/>
      <point x="310" y="229" type="line"/>
      <point x="338" y="218" type="line"/>
      <point x="310" y="208" type="line"/>
      <point x="54" y="53" type="line"/>
      <point x="54" y="-5" type="line"/>
    </contour>
  </outline>
</glyph>
<glyph name="at" format="1">
  <advance width="788"/>
  <unicode hex="0040"/>
  <outline>
    <contour>
      <point x="20" y="-24"/>
      <point x="170" y="-156"/>
      <point x="401" y="-156" type="curve" smooth="yes"/>
      <point x="542" y="-157"/>
      <point x="647" y="-118"/>
      <point x="748" y="-18" type="curve"/>
      <point x="722" y="13" type="line"/>
      <point x="630" y="-78"/>
      <point x="537" y="-118"/>
      <point x="410" y="-117" type="curve" smooth="yes"/>
      <point x="198" y="-117"/>
      <point x="66" y="4"/>
      <point x="66" y="173" type="curve" smooth="yes"/>
      <point x="66" y="356"/>
      <point x="195" y="567"/>
      <point x="449" y="567" type="curve" smooth="yes"/>
      <point x="606" y="567"/>
      <point x="727" y="448"/>
      <point x="727" y="305" type="curve" smooth="yes"/>
      <point x="727" y="192"/>
      <point x="645" y="75"/>
      <point x="595" y="75" type="curve" smooth="yes"/>
      <point x="586" y="75"/>
      <point x="582" y="81"/>
      <point x="582" y="92" type="curve" smooth="yes"/>
      <point x="582" y="128"/>
      <point x="601" y="241"/>
      <point x="626" y="340" type="curve" smooth="yes"/>
      <point x="650" y="435" type="line"/>
      <point x="498" y="418" type="line"/>
      <point x="493" y="398" type="line"/>
      <point x="480" y="425"/>
      <point x="450" y="437"/>
      <point x="421" y="437" type="curve" smooth="yes"/>
      <point x="276" y="437"/>
      <point x="166" y="279"/>
      <point x="166" y="112" type="curve" smooth="yes"/>
      <point x="166" y="36"/>
      <point x="199" y="-10"/>
      <point x="258" y="-10" type="curve" smooth="yes"/>
      <point x="321" y="-10"/>
      <point x="399" y="34"/>
      <point x="451" y="167" type="curve"/>
      <point x="438" y="111"/>
      <point x="429" y="61"/>
      <point x="429" y="36" type="curve" smooth="yes"/>
      <point x="429" y="5"/>
      <point x="435" y="-10"/>
      <point x="474" y="-10" type="curve" smooth="yes"/>
      <point x="510" y="-10"/>
      <point x="547" y="0"/>
      <point x="582" y="16" type="curve" smooth="yes"/>
      <point x="709" y="74"/>
      <point x="768" y="198"/>
      <point x="768" y="306" type="curve" smooth="yes"/>
      <point x="768" y="475"/>
      <point x="632" y="606"/>
      <point x="449" y="606" type="curve" smooth="yes"/>
      <point x="203" y="606"/>
      <point x="20" y="398"/>
      <point x="20" y="178" type="curve" smooth="yes"/>
    </contour>
    <contour>
      <point x="315" y="167"/>
      <point x="321" y="206"/>
      <point x="332" y="244" type="curve" smooth="yes"/>
      <point x="357" y="343"/>
      <point x="399" y="407"/>
      <point x="441" y="407" type="curve" smooth="yes"/>
      <point x="468" y="407"/>
      <point x="481" y="383"/>
      <point x="481" y="355" type="curve" smooth="yes"/>
      <point x="481" y="245"/>
      <point x="388" y="65"/>
      <point x="347" y="65" type="curve" smooth="yes"/>
      <point x="327" y="65"/>
      <point x="315" y="88"/>
      <point x="315" y="133" type="curve" smooth="yes"/>
    </contour>
  </outline>
</glyph>
<glyph name="A" format="1">
  <advance width="617"/>
  <unicode hex="0041"/>
  <outline>
    <contour>
      <point x="363" y="216" type="line"/>
      <point x="137" y="216" type="line"/>
      <point x="127" y="178" type="line"/>
      <point x="373" y="178" type="line"/>
    </contour>
    <contour>
      <point x="338" y="607" type="line"/>
      <point x="282" y="607" type="line"/>
      <point x="77" y="114" type="line" smooth="yes"/>
      <point x="67" y="89"/>
      <point x="57" y="70"/>
      <point x="47" y="56" type="curve" smooth="yes"/>
      <point x="38" y="43"/>
      <point x="27" y="37"/>
      <point x="14" y="37" type="curve" smooth="yes"/>
      <point x="10" y="37" type="line"/>
      <point x="-20" y="39" type="line"/>
      <point x="-20" y="0" type="line"/>
      <point x="163" y="0" type="line"/>
      <point x="163" y="39" type="line"/>
      <point x="119" y="36" type="line"/>
      <point x="86" y="33"/>
      <point x="96" y="71"/>
      <point x="111" y="106" type="curve" smooth="yes"/>
      <point x="273" y="498" type="line"/>
    </contour>
    <contour>
      <point x="243" y="453" type="line"/>
      <point x="390" y="100" type="line" smooth="yes"/>
      <point x="403" y="69"/>
      <point x="410" y="34"/>
      <point x="370" y="37" type="curve"/>
      <point x="325" y="39" type="line"/>
      <point x="325" y="0" type="line"/>
      <point x="637" y="0" type="line"/>
      <point x="637" y="39" type="line"/>
      <point x="614" y="37" type="line"/>
      <point x="609" y="37" type="line" smooth="yes"/>
      <point x="594" y="37"/>
      <point x="583" y="43"/>
      <point x="574" y="55" type="curve" smooth="yes"/>
      <point x="565" y="68"/>
      <point x="555" y="87"/>
      <point x="545" y="112" type="curve" smooth="yes"/>
      <point x="338" y="607" type="line"/>
    </contour>
    <contour>
      <point x="571" y="14" type="move" name="ogonek"/>
    </contour>
    <contour>
      <point x="311" y="598" type="move" name="top"/>
    </contour>
  </outline>
</glyph>
<glyph name="B" format="1">
  <advance width="583"/>
  <unicode hex="0042"/>
  <outline>
    <contour>
      <point x="35" y="597" type="line"/>
      <point x="35" y="557" type="line"/>
      <point x="81" y="559" type="line"/>
      <point x="92" y="559"/>
      <point x="98" y="548"/>
      <point x="98" y="539" type="curve" smooth="yes"/>
      <point x="98" y="59" type="line" smooth="yes"/>
      <point x="98" y="45"/>
      <point x="93" y="37"/>
      <point x="82" y="37" type="curve" smooth="yes"/>
      <point x="35" y="39" type="line"/>
      <point x="35" y="0" type="line"/>
      <point x="342" y="0" type="line" smooth="yes"/>
      <point x="489" y="0"/>
      <point x="563" y="54"/>
      <point x="563" y="162" type="curve" smooth="yes"/>
      <point x="563" y="251"/>
      <point x="487" y="317"/>
      <point x="392" y="317" type="curve"/>
      <point x="475" y="332"/>
      <point x="530" y="383"/>
      <point x="530" y="454" type="curve" smooth="yes"/>
      <point x="530" y="549"/>
      <point x="469" y="597"/>
      <point x="357" y="597" type="curve" smooth="yes"/>
    </contour>
    <contour>
      <point x="376" y="292"/>
      <point x="406" y="257"/>
      <point x="406" y="164" type="curve" smooth="yes"/>
      <point x="406" y="75"/>
      <point x="366" y="38"/>
      <point x="307" y="38" type="curve" smooth="yes"/>
      <point x="265" y="38" type="line" smooth="yes"/>
      <point x="256" y="38"/>
      <point x="251" y="42"/>
      <point x="251" y="51" type="curve" smooth="yes"/>
      <point x="251" y="292" type="line"/>
      <point x="318" y="292" type="line" smooth="yes"/>
    </contour>
    <contour>
      <point x="346" y="559"/>
      <point x="375" y="528"/>
      <point x="375" y="448" type="curve" smooth="yes"/>
      <point x="375" y="362"/>
      <point x="349" y="330"/>
      <point x="295" y="330" type="curve" smooth="yes"/>
      <point x="251" y="330" type="line"/>
      <point x="251" y="547" type="line"/>
      <point x="252" y="555"/>
      <point x="256" y="559"/>
      <point x="263" y="559" type="curve" smooth="yes"/>
      <point x="294" y="559" type="line" smooth="yes"/>
    </contour>
  </outline>
</glyph>
<glyph name="C" format="1">
  <advance width="592"/>
  <unicode hex="0043"/>
  <outline>
    <contour>
      <point x="25" y="106"/>
      <point x="143" y="-10"/>
      <point x="335" y="-10" type="curve" smooth="yes"/>
      <point x="426" y="-10"/>
      <point x="495" y="35"/>
      <point x="558" y="35" type="curve" smooth="yes"/>
      <point x="564" y="35" type="line"/>
      <point x="562" y="47"/>
      <point x="561" y="63"/>
      <point x="561" y="82" type="curve" smooth="yes"/>
      <point x="561" y="95"/>
      <point x="562" y="125"/>
      <point x="567" y="167" type="curve"/>
      <point x="529" y="167" type="line"/>
      <point x="512" y="88"/>
      <point x="446" y="27"/>
      <point x="364" y="27" type="curve" smooth="yes"/>
      <point x="260" y="27"/>
      <point x="192" y="118"/>
      <point x="192" y="295" type="curve" smooth="yes"/>
      <point x="192" y="480"/>
      <point x="255" y="572"/>
      <point x="360" y="572" type="curve" smooth="yes"/>
      <point x="438" y="572"/>
      <point x="508" y="509"/>
      <point x="524" y="433" type="curve"/>
      <point x="558" y="433" type="line"/>
      <point x="556" y="435"/>
      <point x="554" y="459"/>
      <point x="554" y="489" type="curve" smooth="yes"/>
      <point x="554" y="513"/>
      <point x="555" y="541"/>
      <point x="558" y="564" type="curve"/>
      <point x="481" y="564"/>
      <point x="453" y="607"/>
      <point x="340" y="607" type="curve" smooth="yes"/>
      <point x="142" y="607"/>
      <point x="25" y="492"/>
      <point x="25" y="295" type="curve" smooth="yes"/>
    </contour>
    <contour>
      <point x="334" y="598" type="move" name="top"/>
    </contour>
    <contour>
      <point x="334" y="0" type="move" name="bottom"/>
    </contour>
  </outline>
</glyph>
<glyph name="D" format="1">
  <advance width="638"/>
  <unicode hex="0044"/>
  <outline>
    <contour>
      <point x="297" y="0" type="line" smooth="yes"/>
      <point x="514" y="0"/>
      <point x="613" y="104"/>
      <point x="613" y="299" type="curve" smooth="yes"/>
      <point x="613" y="516"/>
      <point x="506" y="597"/>
      <point x="285" y="597" type="curve" smooth="yes"/>
      <point x="35" y="597" type="line"/>
      <point x="35" y="557" type="line"/>
      <point x="69" y="559" type="line" smooth="yes"/>
      <point x="82" y="560"/>
      <point x="88" y="549"/>
      <point x="88" y="538" type="curve" smooth="yes"/>
      <point x="88" y="59" type="line" smooth="yes"/>
      <point x="88" y="47"/>
      <point x="84" y="36"/>
      <point x="73" y="37" type="curve" smooth="yes"/>
      <point x="35" y="39" type="line"/>
      <point x="35" y="0" type="line"/>
    </contour>
    <contour>
      <point x="241" y="546" type="line" smooth="yes"/>
      <point x="241" y="555"/>
      <point x="245" y="559"/>
      <point x="253" y="559" type="curve" smooth="yes"/>
      <point x="268" y="559" type="line" smooth="yes"/>
      <point x="398" y="559"/>
      <point x="446" y="514"/>
      <point x="446" y="298" type="curve" smooth="yes"/>
      <point x="446" y="81"/>
      <point x="398" y="38"/>
      <point x="268" y="38" type="curve" smooth="yes"/>
      <point x="253" y="38" type="line" smooth="yes"/>
      <point x="245" y="38"/>
      <point x="241" y="42"/>
      <point x="241" y="51" type="curve" smooth="yes"/>
    </contour>
    <contour>
      <point x="300" y="299" type="move" name="center"/>
    </contour>
    <contour>
      <point x="300" y="598" type="move" name="top"/>
    </contour>
  </outline>
</glyph>
<glyph name="E" format="1">
  <advance width="573"/>
  <unicode hex="0045"/>
  <outline>
    <contour>
      <point x="431" y="0" type="line" smooth="yes"/>
      <point x="474" y="0"/>
      <point x="514" y="-1"/>
      <point x="529" y="-3" type="curve"/>
      <point x="529" y="179" type="line"/>
      <point x="492" y="179" type="line"/>
      <point x="492" y="88"/>
      <point x="444" y="38"/>
      <point x="353" y="38" type="curve" smooth="yes"/>
      <point x="253" y="38" type="line" smooth="yes"/>
      <point x="245" y="38"/>
      <point x="241" y="42"/>
      <point x="241" y="51" type="curve" smooth="yes"/>
      <point x="241" y="287" type="line"/>
      <point x="305" y="287" type="line" smooth="yes"/>
      <point x="346" y="287"/>
      <point x="381" y="245"/>
      <point x="381" y="190" type="curve"/>
      <point x="418" y="190" type="line"/>
      <point x="418" y="426" type="line"/>
      <point x="381" y="426" type="line"/>
      <point x="381" y="362"/>
      <point x="349" y="325"/>
      <point x="305" y="325" type="curve" smooth="yes"/>
      <point x="241" y="325" type="line"/>
      <point x="241" y="545" type="line" smooth="yes"/>
      <point x="241" y="554"/>
      <point x="245" y="559"/>
      <point x="253" y="559" type="curve" smooth="yes"/>
      <point x="320" y="559" type="line" smooth="yes"/>
      <point x="419" y="559"/>
      <point x="462" y="525"/>
      <point x="462" y="443" type="curve"/>
      <point x="499" y="443" type="line"/>
      <point x="499" y="598" type="line"/>
      <point x="496" y="597"/>
      <point x="490" y="597"/>
      <point x="482" y="597" type="curve" smooth="yes"/>
      <point x="451" y="597" type="line"/>
      <point x="35" y="597" type="line"/>
      <point x="35" y="557" type="line"/>
      <point x="68" y="559" type="line" smooth="yes"/>
      <point x="80" y="560"/>
      <point x="88" y="550"/>
      <point x="88" y="538" type="curve" smooth="yes"/>
      <point x="88" y="59" type="line" smooth="yes"/>
      <point x="88" y="44"/>
      <point x="82" y="37"/>
      <point x="70" y="37" type="curve"/>
      <point x="35" y="40" type="line"/>
      <point x="35" y="0" type="line"/>
    </contour>
    <contour>
      <point x="467" y="14" type="move" name="ogonek"/>
    </contour>
    <contour>
      <point x="282" y="0" type="move" name="bottom"/>
    </contour>
    <contour>
      <point x="282" y="598" type="move" name="top"/>
    </contour>
  </outline>
</glyph>
<glyph name="F" format="1">
  <advance width="529"/>
  <unicode hex="0046"/>
  <outline>
    <contour>
      <point x="312" y="0" type="line"/>
      <point x="312" y="40" type="line"/>
      <point x="260" y="37" type="line"/>
      <point x="249" y="37"/>
      <point x="241" y="46"/>
      <point x="241" y="58" type="curve" smooth="yes"/>
      <point x="241" y="277" type="line"/>
      <point x="306" y="277" type="line" smooth="yes"/>
      <point x="353" y="277"/>
      <point x="385" y="238"/>
      <point x="385" y="177" type="curve"/>
      <point x="422" y="177" type="line"/>
      <point x="422" y="417" type="line"/>
      <point x="385" y="417" type="line"/>
      <point x="385" y="353"/>
      <point x="353" y="315"/>
      <point x="306" y="315" type="curve" smooth="yes"/>
      <point x="241" y="315" type="line"/>
      <point x="241" y="546" type="line" smooth="yes"/>
      <point x="241" y="555"/>
      <point x="245" y="559"/>
      <point x="253" y="559" type="curve" smooth="yes"/>
      <point x="330" y="559" type="line" smooth="yes"/>
      <point x="429" y="559"/>
      <point x="474" y="524"/>
      <point x="472" y="443" type="curve"/>
      <point x="509" y="443" type="line"/>
      <point x="509" y="598" type="line"/>
      <point x="506" y="597"/>
      <point x="501" y="597"/>
      <point x="494" y="597" type="curve" smooth="yes"/>
      <point x="464" y="597" type="line"/>
      <point x="35" y="597" type="line"/>
      <point x="35" y="557" type="line"/>
      <point x="69" y="559" type="line"/>
      <point x="71" y="559" type="line" smooth="yes"/>
      <point x="82" y="559"/>
      <point x="88" y="552"/>
      <point x="88" y="538" type="curve" smooth="yes"/>
      <point x="88" y="59" type="line" smooth="yes"/>
      <point x="88" y="44"/>
      <point x="82" y="37"/>
      <point x="70" y="37" type="curve"/>
      <point x="35" y="40" type="line"/>
      <point x="35" y="0" type="line"/>
    </contour>
  </outline>
</glyph>
<glyph name="G" format="1">
  <advance width="651"/>
  <unicode hex="0047"/>
  <outline>
    <contour>
      <point x="25" y="91"/>
      <point x="146" y="-10"/>
      <point x="333" y="-10" type="curve" smooth="yes"/>
      <point x="461" y="-10"/>
      <point x="511" y="37"/>
      <point x="564" y="37" type="curve" smooth="yes"/>
      <point x="572" y="37"/>
      <point x="579" y="36"/>
      <point x="584" y="35" type="curve"/>
      <point x="584" y="214" type="line" smooth="yes"/>
      <point x="584" y="225"/>
      <point x="592" y="236"/>
      <point x="603" y="235" type="curve" smooth="yes"/>
      <point x="633" y="233" type="line"/>
      <point x="633" y="272" type="line"/>
      <point x="353" y="272" type="line"/>
      <point x="353" y="233" type="line"/>
      <point x="412" y="235" type="line" smooth="yes"/>
      <point x="425" y="235"/>
      <point x="431" y="228"/>
      <point x="431" y="213" type="curve" smooth="yes"/>
      <point x="431" y="69" type="line"/>
      <point x="405" y="37"/>
      <point x="376" y="27"/>
      <point x="343" y="27" type="curve" smooth="yes"/>
      <point x="246" y="27"/>
      <point x="192" y="107"/>
      <point x="192" y="285" type="curve" smooth="yes"/>
      <point x="192" y="473"/>
      <point x="250" y="572"/>
      <point x="358" y="572" type="curve" smooth="yes"/>
      <point x="458" y="572"/>
      <point x="511" y="524"/>
      <point x="515" y="443" type="curve" smooth="yes"/>
      <point x="515" y="435"/>
      <point x="515" y="431"/>
      <point x="514" y="423" type="curve"/>
      <point x="568" y="423" type="line"/>
      <point x="565" y="456"/>
      <point x="564" y="485"/>
      <point x="564" y="507" type="curve" smooth="yes"/>
      <point x="564" y="535"/>
      <point x="566" y="552"/>
      <point x="568" y="564" type="curve"/>
      <point x="522" y="564"/>
      <point x="448" y="607"/>
      <point x="342" y="607" type="curve" smooth="yes"/>
      <point x="142" y="607"/>
      <point x="25" y="501"/>
      <point x="25" y="298" type="curve" smooth="yes"/>
    </contour>
    <contour>
      <point x="333" y="598" type="move" name="top"/>
    </contour>
    <contour>
      <point x="333" y="0" type="move" name="bottom"/>
    </contour>
  </outline>
</glyph>
<glyph name="I" format="1">
  <advance width="330"/>
  <unicode hex="0049"/>
  <outline>
    <contour>
      <point x="295" y="0" type="line"/>
      <point x="295" y="39" type="line"/>
      <point x="261" y="37" type="line" smooth="yes"/>
      <point x="248" y="36"/>
      <point x="241" y="44"/>
      <point x="241" y="59" type="curve" smooth="yes"/>
      <point x="241" y="538" type="line" smooth="yes"/>
      <point x="241" y="550"/>
      <point x="249" y="560"/>
      <point x="261" y="559" type="curve" smooth="yes"/>
      <point x="295" y="557" type="line"/>
      <point x="295" y="597" type="line"/>
      <point x="35" y="597" type="line"/>
      <point x="35" y="557" type="line"/>
      <point x="69" y="559" type="line" smooth="yes"/>
      <point x="82" y="560"/>
      <point x="88" y="549"/>
      <point x="88" y="538" type="curve" smooth="yes"/>
      <point x="88" y="59" type="line" smooth="yes"/>
      <point x="88" y="44"/>
      <point x="82" y="36"/>
      <point x="69" y="37" type="curve" smooth="yes"/>
      <point x="35" y="39" type="line"/>
      <point x="35" y="0" type="line"/>
    </contour>
    <contour>
      <point x="259" y="10" type="move" name="ogonek"/>
    </contour>
    <contour>
      <point x="165" y="598" type="move" name="top"/>
    </contour>
  </outline>
</glyph>
<glyph name="J" format="1">
  <advance width="461"/>
  <unicode hex="004A"/>
  <outline>
    <contour>
      <point x="31" y="6"/>
      <point x="48" y="5"/>
      <point x="59" y="5" type="curve" smooth="yes"/>
      <point x="86" y="5"/>
      <point x="122" y="-10"/>
      <point x="174" y="-10" type="curve" smooth="yes"/>
      <point x="308" y="-10"/>
      <point x="378" y="51"/>
      <point x="378" y="179" type="curve" smooth="yes"/>
      <point x="378" y="539" type="line" smooth="yes"/>
      <point x="378" y="550"/>
      <point x="385" y="560"/>
      <point x="398" y="559" type="curve" smooth="yes"/>
      <point x="431" y="557" type="line"/>
      <point x="431" y="597" type="line"/>
      <point x="137" y="597" type="line"/>
      <point x="137" y="557" type="line"/>
      <point x="206" y="559" type="line"/>
      <point x="217" y="560"/>
      <point x="225" y="550"/>
      <point x="225" y="538" type="curve" smooth="yes"/>
      <point x="225" y="179" type="line" smooth="yes"/>
      <point x="225" y="66"/>
      <point x="203" y="26"/>
      <point x="149" y="26" type="curve" smooth="yes"/>
      <point x="87" y="26"/>
      <point x="70" y="117"/>
      <point x="70" y="172" type="curve"/>
      <point x="24" y="172" type="line"/>
      <point x="24" y="-1" type="line"/>
    </contour>
    <contour>
      <point x="286" y="598" type="move" name="top"/>
    </contour>
  </outline>
</glyph>
<glyph name="K" format="1">
  <advance width="646"/>
  <unicode hex="004B"/>
  <outline>
    <contour>
      <point x="241" y="537" type="line"/>
      <point x="241" y="552"/>
      <point x="248" y="559"/>
      <point x="261" y="559" type="curve" smooth="yes"/>
      <point x="310" y="557" type="line"/>
      <point x="310" y="597" type="line"/>
      <point x="35" y="597" type="line"/>
      <point x="35" y="557" type="line"/>
      <point x="69" y="559" type="line" smooth="yes"/>
      <point x="82" y="560"/>
      <point x="88" y="550"/>
      <point x="88" y="538" type="curve" smooth="yes"/>
      <point x="88" y="59" type="line" smooth="yes"/>
      <point x="88" y="44"/>
      <point x="82" y="36"/>
      <point x="69" y="37" type="curve" smooth="yes"/>
      <point x="35" y="39" type="line"/>
      <point x="35" y="0" type="line"/>
      <point x="305" y="0" type="line"/>
      <point x="305" y="39" type="line"/>
      <point x="261" y="37" type="line" smooth="yes"/>
      <point x="248" y="36"/>
      <point x="241" y="44"/>
      <point x="241" y="59" type="curve"/>
    </contour>
    <contour>
      <point x="256" y="275" type="line"/>
      <point x="394" y="61" type="line"/>
      <point x="406" y="42"/>
      <point x="396" y="35"/>
      <point x="379" y="36" type="curve" smooth="yes"/>
      <point x="339" y="39" type="line"/>
      <point x="339" y="0" type="line"/>
      <point x="640" y="0" type="line"/>
      <point x="640" y="39" type="line"/>
      <point x="630" y="37"/>
      <point x="621" y="36"/>
      <point x="611" y="36" type="curve" smooth="yes"/>
      <point x="602" y="36"/>
      <point x="593" y="41"/>
      <point x="587" y="50" type="curve" smooth="yes"/>
      <point x="360" y="396" type="line"/>
    </contour>
    <contour>
      <point x="509" y="530" type="line" smooth="yes"/>
      <point x="531" y="556"/>
      <point x="547" y="560"/>
      <point x="567" y="559" type="curve" smooth="yes"/>
      <point x="601" y="557" type="line"/>
      <point x="601" y="597" type="line"/>
      <point x="421" y="597" type="line"/>
      <point x="421" y="557" type="line"/>
      <point x="455" y="559" type="line" smooth="yes"/>
      <point x="462" y="559"/>
      <point x="465" y="556"/>
      <point x="465" y="550" type="curve" smooth="yes"/>
      <point x="465" y="547"/>
      <point x="464" y="542"/>
      <point x="448" y="523" type="curve" smooth="yes"/>
      <point x="234" y="270" type="line"/>
      <point x="234" y="213" type="line"/>
    </contour>
    <contour>
      <point x="328" y="598" type="move" name="top"/>
    </contour>
    <contour>
      <point x="328" y="0" type="move" name="bottom"/>
    </contour>
  </outline>
</glyph>
<glyph name="M" format="1">
  <advance width="893"/>
  <unicode hex="004D"/>
  <outline>
    <contour>
      <point x="89" y="548" type="line"/>
      <point x="89" y="59" type="line" smooth="yes"/>
      <point x="89" y="44"/>
      <point x="82" y="37"/>
      <point x="69" y="37" type="curve" smooth="yes"/>
      <point x="30" y="39" type="line"/>
      <point x="30" y="0" type="line"/>
      <point x="201" y="0" type="line"/>
      <point x="201" y="39" type="line"/>
      <point x="152" y="37" type="line" smooth="yes"/>
      <point x="139" y="37"/>
      <point x="133" y="44"/>
      <point x="133" y="59" type="curve" smooth="yes"/>
      <point x="133" y="536" type="line"/>
    </contour>
    <contour>
      <point x="470" y="160" type="line"/>
      <point x="261" y="597" type="line"/>
      <point x="37" y="597" type="line"/>
      <point x="37" y="557" type="line"/>
      <point x="79" y="559" type="line"/>
      <point x="86" y="560"/>
      <point x="89" y="558"/>
      <point x="89" y="553" type="curve" smooth="yes"/>
      <point x="89" y="528" type="line"/>
      <point x="129" y="535" type="line"/>
      <point x="390" y="-10" type="line"/>
    </contour>
    <contour>
      <point x="652" y="531" type="line"/>
      <point x="652" y="59" type="line" smooth="yes"/>
      <point x="652" y="44"/>
      <point x="645" y="37"/>
      <point x="632" y="37" type="curve" smooth="yes"/>
      <point x="583" y="39" type="line"/>
      <point x="583" y="0" type="line"/>
      <point x="858" y="0" type="line"/>
      <point x="858" y="39" type="line"/>
      <point x="824" y="37" type="line" smooth="yes"/>
      <point x="811" y="36"/>
      <point x="804" y="44"/>
      <point x="804" y="59" type="curve" smooth="yes"/>
      <point x="804" y="539" type="line" smooth="yes"/>
      <point x="804" y="550"/>
      <point x="812" y="560"/>
      <point x="824" y="559" type="curve" smooth="yes"/>
      <point x="853" y="557" type="line"/>
      <point x="853" y="597" type="line"/>
      <point x="653" y="597" type="line"/>
    </contour>
    <contour>
      <point x="653" y="597" type="line"/>
      <point x="429" y="102" type="line"/>
      <point x="390" y="-10" type="line"/>
      <point x="424" y="-10" type="line"/>
      <point x="667" y="530" type="line"/>
    </contour>
  </outline>
</glyph>
<glyph name="N" format="1">
  <advance width="682"/>
  <unicode hex="004E"/>
  <outline>
    <contour>
      <point x="89" y="558" type="line"/>
      <point x="89" y="49" type="line" smooth="yes"/>
      <point x="89" y="34"/>
      <point x="82" y="27"/>
      <point x="69" y="27" type="curve" smooth="yes"/>
      <point x="30" y="29" type="line"/>
      <point x="30" y="0" type="line"/>
      <point x="201" y="0" type="line"/>
      <point x="201" y="29" type="line"/>
      <point x="152" y="27" type="line" smooth="yes"/>
      <point x="139" y="27"/>
      <point x="133" y="34"/>
      <point x="133" y="49" type="curve" smooth="yes"/>
      <point x="133" y="535" type="line"/>
    </contour>
    <contour>
      <point x="563" y="175" type="line"/>
      <point x="253" y="597" type="line"/>
      <point x="30" y="597" type="line"/>
      <point x="30" y="567" type="line"/>
      <point x="69" y="569" type="line" smooth="yes"/>
      <point x="82" y="570"/>
      <point x="89" y="559"/>
      <point x="89" y="548" type="curve"/>
      <point x="127" y="533" type="line"/>
      <point x="524" y="-6" type="line"/>
    </contour>
    <contour>
      <point x="524" y="-6" type="line"/>
      <point x="594" y="-6" type="line"/>
      <point x="594" y="548" type="line" smooth="yes"/>
      <point x="594" y="562"/>
      <point x="600" y="569"/>
      <point x="611" y="569" type="curve" smooth="yes"/>
      <point x="613" y="569" type="line"/>
      <point x="652" y="567" type="line"/>
      <point x="652" y="597" type="line"/>
      <point x="481" y="597" type="line"/>
      <point x="481" y="567" type="line"/>
      <point x="530" y="569" type="line"/>
      <point x="533" y="569" type="line" smooth="yes"/>
      <point x="544" y="569"/>
      <point x="550" y="562"/>
      <point x="550" y="549" type="curve" smooth="yes"/>
      <point x="550" y="183" type="line"/>
    </contour>
    <contour>
      <point x="346" y="598" type="move" name="top"/>
    </contour>
    <contour>
      <point x="346" y="0" type="move" name="bottom"/>
    </contour>
  </outline>
</glyph>
<glyph name="P" format="1">
  <advance width="555"/>
  <unicode hex="0050"/>
  <outline>
    <contour>
      <point x="310" y="0" type="line"/>
      <point x="310" y="39" type="line"/>
      <point x="261" y="37" type="line"/>
      <point x="248" y="37"/>
      <point x="241" y="44"/>
      <point x="241" y="59" type="curve" smooth="yes"/>
      <point x="241" y="243" type="line"/>
      <point x="336" y="243" type="line" smooth="yes"/>
      <point x="458" y="243"/>
      <point x="535" y="316"/>
      <point x="535" y="426" type="curve" smooth="yes"/>
      <point x="535" y="541"/>
      <point x="463" y="597"/>
      <point x="307" y="597" type="curve" smooth="yes"/>
      <point x="35" y="597" type="line"/>
      <point x="35" y="557" type="line"/>
      <point x="65" y="559" type="line" smooth="yes"/>
      <point x="84" y="560"/>
      <point x="88" y="552"/>
      <point x="88" y="537" type="curve" smooth="yes"/>
      <point x="88" y="59" type="line" smooth="yes"/>
      <point x="88" y="44"/>
      <point x="82" y="36"/>
      <point x="69" y="37" type="curve" smooth="yes"/>
      <point x="35" y="39" type="line"/>
      <point x="35" y="0" type="line"/>
    </contour>
    <contour>
      <point x="241" y="547" type="line" smooth="yes"/>
      <point x="241" y="554"/>
      <point x="248" y="559"/>
      <point x="253" y="559" type="curve" smooth="yes"/>
      <point x="288" y="559" type="line" smooth="yes"/>
      <point x="340" y="559"/>
      <point x="374" y="505"/>
      <point x="374" y="426" type="curve" smooth="yes"/>
      <point x="374" y="342"/>
      <point x="336" y="281"/>
      <point x="286" y="281" type="curve" smooth="yes"/>
      <point x="241" y="281" type="line"/>
    </contour>
  </outline>
</glyph>
<glyph name="R" format="1">
  <advance width="602"/>
  <unicode hex="0052"/>
  <outline>
    <contour>
      <point x="310" y="0" type="line"/>
      <point x="310" y="39" type="line"/>
      <point x="261" y="37" type="line" smooth="yes"/>
      <point x="248" y="37"/>
      <point x="241" y="44"/>
      <point x="241" y="59" type="curve" smooth="yes"/>
      <point x="241" y="266" type="line"/>
      <point x="263" y="266" type="line" smooth="yes"/>
      <point x="321" y="266"/>
      <point x="380" y="231"/>
      <point x="380" y="137" type="curve" smooth="yes"/>
      <point x="380" y="104" type="line" smooth="yes"/>
      <point x="380" y="92"/>
      <point x="381" y="79"/>
      <point x="382" y="66" type="curve" smooth="yes"/>
      <point x="383" y="39"/>
      <point x="388" y="16"/>
      <point x="396" y="0" type="curve"/>
      <point x="587" y="0" type="line"/>
      <point x="587" y="30" type="line"/>
      <point x="579" y="25"/>
      <point x="567" y="25"/>
      <point x="559" y="28" type="curve" smooth="yes"/>
      <point x="542" y="34"/>
      <point x="530" y="89"/>
      <point x="530" y="122" type="curve" smooth="yes"/>
      <point x="530" y="229"/>
      <point x="435" y="287"/>
      <point x="364" y="287" type="curve"/>
      <point x="458" y="307"/>
      <point x="516" y="364"/>
      <point x="516" y="450" type="curve" smooth="yes"/>
      <point x="516" y="550"/>
      <point x="447" y="597"/>
      <point x="306" y="597" type="curve" smooth="yes"/>
      <point x="35" y="597" type="line"/>
      <point x="35" y="557" type="line"/>
      <point x="66" y="559" type="line" smooth="yes"/>
      <point x="82" y="560"/>
      <point x="88" y="549"/>
      <point x="88" y="538" type="curve" smooth="yes"/>
      <point x="88" y="59" type="line" smooth="yes"/>
      <point x="88" y="44"/>
      <point x="82" y="36"/>
      <point x="69" y="37" type="curve" smooth="yes"/>
      <point x="35" y="39" type="line"/>
      <point x="35" y="0" type="line"/>
    </contour>
    <contour>
      <point x="241" y="549" type="line" smooth="yes"/>
      <point x="241" y="556"/>
      <point x="245" y="559"/>
      <point x="253" y="559" type="curve" smooth="yes"/>
      <point x="275" y="559" type="line" smooth="yes"/>
      <point x="336" y="559"/>
      <point x="367" y="523"/>
      <point x="367" y="433" type="curve" smooth="yes"/>
      <point x="367" y="352"/>
      <point x="337" y="303"/>
      <point x="294" y="303" type="curve" smooth="yes"/>
      <point x="241" y="303" type="line"/>
    </contour>
    <contour>
      <point x="291" y="598" type="move" name="top"/>
    </contour>
    <contour>
      <point x="291" y="0" type="move" name="bottom"/>
    </contour>
  </outline>
</glyph>
<glyph name="V" format="1">
  <advance width="615"/>
  <unicode hex="0056"/>
  <outline>
    <contour>
      <point x="27" y="559" type="line" smooth="yes"/>
      <point x="36" y="559"/>
      <point x="43" y="551"/>
      <point x="50" y="536" type="curve" smooth="yes"/>
      <point x="283" y="-4" type="line"/>
      <point x="344" y="-4" type="line"/>
      <point x="578" y="536" type="line" smooth="yes"/>
      <point x="585" y="552"/>
      <point x="588" y="560"/>
      <point x="599" y="559" type="curve" smooth="yes"/>
      <point x="635" y="557" type="line"/>
      <point x="635" y="597" type="line"/>
      <point x="472" y="597" type="line"/>
      <point x="472" y="557" type="line"/>
      <point x="519" y="559" type="line" smooth="yes"/>
      <point x="534" y="560"/>
      <point x="535" y="549"/>
      <point x="524" y="524" type="curve" smooth="yes"/>
      <point x="352" y="127" type="line"/>
      <point x="388" y="127" type="line"/>
      <point x="210" y="535" type="line" smooth="yes"/>
      <point x="206" y="546"/>
      <point x="210" y="559"/>
      <point x="219" y="559" type="curve" smooth="yes"/>
      <point x="268" y="557" type="line"/>
      <point x="268" y="597" type="line"/>
      <point x="-1" y="597" type="line"/>
      <point x="-1" y="557" type="line"/>
    </contour>
  </outline>
</glyph>
<glyph name="W" format="1">
  <advance width="920"/>
  <unicode hex="0057"/>
  <outline>
    <contour>
      <point x="457" y="481" type="line"/>
      <point x="642" y="-10" type="line"/>
      <point x="698" y="-10" type="line"/>
      <point x="885" y="538" type="line" smooth="yes"/>
      <point x="888" y="547"/>
      <point x="897" y="560"/>
      <point x="910" y="559" type="curve" smooth="yes"/>
      <point x="940" y="557" type="line"/>
      <point x="940" y="597" type="line"/>
      <point x="778" y="597" type="line"/>
      <point x="777" y="557" type="line"/>
      <point x="829" y="559" type="line" smooth="yes"/>
      <point x="840" y="560"/>
      <point x="844" y="550"/>
      <point x="840" y="539" type="curve" smooth="yes"/>
      <point x="704" y="143" type="line"/>
      <point x="719" y="143" type="line"/>
      <point x="579" y="537" type="line" smooth="yes"/>
      <point x="576" y="545"/>
      <point x="578" y="559"/>
      <point x="589" y="559" type="curve" smooth="yes"/>
      <point x="631" y="557" type="line"/>
      <point x="631" y="597" type="line"/>
      <point x="371" y="597" type="line"/>
      <point x="371" y="557" type="line"/>
      <point x="412" y="559" type="line" smooth="yes"/>
      <point x="427" y="560"/>
      <point x="432" y="544"/>
      <point x="439" y="526" type="curve" smooth="yes"/>
    </contour>
    <contour>
      <point x="458" y="560" type="line"/>
      <point x="323" y="174" type="line"/>
      <point x="335" y="174" type="line"/>
      <point x="206" y="537" type="line" smooth="yes"/>
      <point x="204" y="543"/>
      <point x="203" y="547"/>
      <point x="203" y="548" type="curve" smooth="yes"/>
      <point x="203" y="557"/>
      <point x="207" y="559"/>
      <point x="216" y="559" type="curve" smooth="yes"/>
      <point x="266" y="557" type="line"/>
      <point x="266" y="597" type="line"/>
      <point x="-2" y="597" type="line"/>
      <point x="-2" y="557" type="line"/>
      <point x="28" y="559" type="line" smooth="yes"/>
      <point x="37" y="559"/>
      <point x="44" y="552"/>
      <point x="49" y="537" type="curve" smooth="yes"/>
      <point x="247" y="-10" type="line"/>
      <point x="306" y="-10" type="line"/>
      <point x="500" y="553" type="line"/>
    </contour>
    <contour>
      <point x="489" y="598" type="move" name="top"/>
    </contour>
  </outline>
</glyph>
<glyph name="underscore" format="1">
  <advance width="493"/>
  <unicode hex="005F"/>
  <outline>
    <contour>
      <point x="0" y="-193" type="line"/>
      <point x="493" y="-193" type="line"/>
      <point x="493" y="-143" type="line"/>
      <point x="0" y="-143" type="line"/>
    </contour>
  </outline>
</glyph>
<glyph name="a" format="1">
  <advance width="473"/>
  <unicode hex="0061"/>
  <outline>
    <contour>
      <point x="108" y="437"/>
      <point x="35" y="392"/>
      <point x="35" y="327" type="curve" smooth="yes"/>
      <point x="35" y="291"/>
      <point x="63" y="265"/>
      <point x="104" y="265" type="curve" smooth="yes"/>
      <point x="137" y="265"/>
      <point x="165" y="283"/>
      <point x="165" y="315" type="curve" smooth="yes"/>
      <point x="165" y="331"/>
      <point x="156" y="340"/>
      <point x="156" y="359" type="curve" smooth="yes"/>
      <point x="156" y="376"/>
      <point x="168" y="400"/>
      <point x="216" y="400" type="curve" smooth="yes"/>
      <point x="274" y="400"/>
      <point x="274" y="356"/>
      <point x="274" y="323" type="curve" smooth="yes"/>
      <point x="274" y="90" type="line"/>
      <point x="275" y="87" type="line"/>
      <point x="273" y="37" type="line"/>
      <point x="273" y="31"/>
      <point x="270" y="6"/>
      <point x="269" y="0" type="curve"/>
      <point x="465" y="0" type="line"/>
      <point x="465" y="36" type="line"/>
      <point x="433" y="34" type="line"/>
      <point x="424" y="34"/>
      <point x="420" y="40"/>
      <point x="420" y="53" type="curve" smooth="yes"/>
      <point x="420" y="306" type="line" smooth="yes"/>
      <point x="420" y="400"/>
      <point x="349" y="437"/>
      <point x="227" y="437" type="curve" smooth="yes"/>
    </contour>
    <contour>
      <point x="93" y="250"/>
      <point x="8" y="205"/>
      <point x="8" y="108" type="curve" smooth="yes"/>
      <point x="8" y="32"/>
      <point x="53" y="-5"/>
      <point x="136" y="-5" type="curve" smooth="yes"/>
      <point x="202" y="-5"/>
      <point x="255" y="19"/>
      <point x="286" y="83" type="curve"/>
      <point x="275" y="187" type="line"/>
      <point x="280" y="114"/>
      <point x="246" y="61"/>
      <point x="202" y="61" type="curve" smooth="yes"/>
      <point x="175" y="61"/>
      <point x="159" y="79"/>
      <point x="159" y="121" type="curve" smooth="yes"/>
      <point x="159" y="180"/>
      <point x="195" y="214"/>
      <point x="286" y="211" type="curve"/>
      <point x="286" y="248" type="line"/>
    </contour>
    <contour>
      <point x="406" y="10" type="move" name="ogonek"/>
    </contour>
    <contour>
      <point x="226" y="427" type="move" name="top"/>
    </contour>
  </outline>
</glyph>
<glyph name="b" format="1">
  <advance width="525"/>
  <unicode hex="0062"/>
  <outline>
    <contour>
      <point x="47" y="697" type="line"/>
      <point x="58" y="697"/>
      <point x="60" y="685"/>
      <point x="60" y="677" type="curve" smooth="yes"/>
      <point x="60" y="-5" type="line"/>
      <point x="142" y="-5" type="line"/>
      <point x="142" y="34"/>
      <point x="154" y="61"/>
      <point x="180" y="61" type="curve" smooth="yes"/>
      <point x="189" y="61"/>
      <point x="194" y="57"/>
      <point x="198" y="52" type="curve" smooth="yes"/>
      <point x="222" y="21"/>
      <point x="250" y="-10"/>
      <point x="330" y="-10" type="curve" smooth="yes"/>
      <point x="442" y="-10"/>
      <point x="510" y="64"/>
      <point x="510" y="212" type="curve" smooth="yes"/>
      <point x="510" y="360"/>
      <point x="449" y="437"/>
      <point x="333" y="437" type="curve" smooth="yes"/>
      <point x="272" y="437"/>
      <point x="223" y="405"/>
      <point x="206" y="360" type="curve"/>
      <point x="206" y="730" type="line"/>
      <point x="16" y="730" type="line"/>
      <point x="16" y="695" type="line"/>
    </contour>
    <contour>
      <point x="208" y="230" type="line" smooth="yes"/>
      <point x="208" y="322"/>
      <point x="236" y="385"/>
      <point x="289" y="385" type="curve" smooth="yes"/>
      <point x="342" y="385"/>
      <point x="354" y="314"/>
      <point x="354" y="212" type="curve" smooth="yes"/>
      <point x="354" y="85"/>
      <point x="338" y="42"/>
      <point x="288" y="42" type="curve" smooth="yes"/>
      <point x="229" y="42"/>
      <point x="208" y="104"/>
      <point x="208" y="187" type="curve" smooth="yes"/>
    </contour>
  </outline>
</glyph>
<glyph name="h" format="1">
  <advance width="544"/>
  <unicode hex="0068"/>
  <outline>
    <contour>
      <point x="281" y="437"/>
      <point x="228" y="392"/>
      <point x="200" y="322" type="curve"/>
      <point x="206" y="190" type="line"/>
      <point x="206" y="322"/>
      <point x="263" y="385"/>
      <point x="304" y="385" type="curve" smooth="yes"/>
      <point x="341" y="385"/>
      <point x="345" y="357"/>
      <point x="345" y="300" type="curve" smooth="yes"/>
      <point x="345" y="53" type="line" smooth="yes"/>
      <point x="345" y="42"/>
      <point x="341" y="36"/>
      <point x="332" y="34" type="curve"/>
      <point x="296" y="36" type="line"/>
      <point x="296" y="0" type="line"/>
      <point x="536" y="0" type="line"/>
      <point x="536" y="36" type="line"/>
      <point x="504" y="34" type="line"/>
      <point x="495" y="34"/>
      <point x="491" y="40"/>
      <point x="491" y="53" type="curve" smooth="yes"/>
      <point x="491" y="293" type="line" smooth="yes"/>
      <point x="491" y="392"/>
      <point x="452" y="437"/>
      <point x="362" y="437" type="curve" smooth="yes"/>
    </contour>
    <contour>
      <point x="15" y="730" type="line"/>
      <point x="15" y="694" type="line"/>
      <point x="47" y="696" type="line"/>
      <point x="56" y="694"/>
      <point x="60" y="687"/>
      <point x="60" y="676" type="curve" smooth="yes"/>
      <point x="60" y="53" type="line" smooth="yes"/>
      <point x="60" y="42"/>
      <point x="56" y="36"/>
      <point x="47" y="34" type="curve"/>
      <point x="15" y="36" type="line"/>
      <point x="15" y="0" type="line"/>
      <point x="255" y="0" type="line"/>
      <point x="255" y="36" type="line"/>
      <point x="219" y="34" type="line"/>
      <point x="210" y="34"/>
      <point x="206" y="40"/>
      <point x="206" y="53" type="curve" smooth="yes"/>
      <point x="206" y="219" type="line"/>
      <point x="206" y="320" type="line"/>
      <point x="206" y="730" type="line"/>
    </contour>
    <contour>
      <point x="270" y="210" type="move" name="center"/>
    </contour>
    <contour>
      <point x="133" y="650" type="move" name="top"/>
    </contour>
  </outline>
</glyph>
<glyph name="k" format="1">
  <advance width="528"/>
  <unicode hex="006B"/>
  <outline>
    <contour>
      <point x="16" y="730" type="line"/>
      <point x="16" y="695" type="line"/>
      <point x="48" y="697" type="line" smooth="yes"/>
      <point x="56" y="697"/>
      <point x="60" y="690"/>
      <point x="60" y="676" type="curve" smooth="yes"/>
      <point x="60" y="53" type="line" smooth="yes"/>
      <point x="60" y="42"/>
      <point x="56" y="36"/>
      <point x="47" y="34" type="curve"/>
      <point x="15" y="36" type="line"/>
      <point x="15" y="0" type="line"/>
      <point x="250" y="0" type="line"/>
      <point x="250" y="36" type="line"/>
      <point x="219" y="34" type="line" smooth="yes"/>
      <point x="210" y="33"/>
      <point x="206" y="40"/>
      <point x="206" y="53" type="curve"/>
      <point x="206" y="730" type="line"/>
    </contour>
    <contour>
      <point x="219" y="221" type="line"/>
      <point x="311" y="48" type="line" smooth="yes"/>
      <point x="315" y="41"/>
      <point x="314" y="33"/>
      <point x="302" y="34" type="curve" smooth="yes"/>
      <point x="272" y="36" type="line"/>
      <point x="272" y="0" type="line"/>
      <point x="521" y="0" type="line"/>
      <point x="521" y="36" type="line"/>
      <point x="495" y="34" type="line" smooth="yes"/>
      <point x="487" y="33"/>
      <point x="474" y="41"/>
      <point x="468" y="52" type="curve" smooth="yes"/>
      <point x="331" y="309" type="line"/>
    </contour>
    <contour>
      <point x="319" y="427" type="line"/>
      <point x="319" y="392" type="line"/>
      <point x="362" y="394" type="line" smooth="yes"/>
      <point x="374" y="395"/>
      <point x="372" y="381"/>
      <point x="365" y="374" type="curve"/>
      <point x="195" y="228" type="line"/>
      <point x="195" y="184" type="line"/>
      <point x="424" y="380" type="line"/>
      <point x="434" y="389"/>
      <point x="444" y="394"/>
      <point x="455" y="394" type="curve" smooth="yes"/>
      <point x="491" y="392" type="line"/>
      <point x="491" y="427" type="line"/>
    </contour>
    <contour>
      <point x="261" y="0" type="move" name="bottom"/>
    </contour>
  </outline>
</glyph>
<glyph name="l" format="1">
  <advance width="265"/>
  <unicode hex="006C"/>
  <outline>
    <contour>
      <point x="250" y="0" type="line"/>
      <point x="250" y="36" type="line"/>
      <point x="219" y="34" type="line" smooth="yes"/>
      <point x="210" y="33"/>
      <point x="206" y="40"/>
      <point x="206" y="53" type="curve" smooth="yes"/>
      <point x="206" y="731" type="line"/>
      <point x="16" y="731" type="line"/>
      <point x="16" y="696" type="line"/>
      <point x="48" y="698" type="line"/>
      <point x="56" y="695"/>
      <point x="60" y="688"/>
      <point x="60" y="677" type="curve" smooth="yes"/>
      <point x="60" y="53" type="line" smooth="yes"/>
      <point x="60" y="42"/>
      <point x="56" y="36"/>
      <point x="47" y="34" type="curve"/>
      <point x="15" y="36" type="line"/>
      <point x="15" y="0" type="line"/>
    </contour>
    <contour>
      <point x="132" y="650" type="move" name="top"/>
    </contour>
    <contour>
      <point x="128" y="0" type="move" name="bottom"/>
    </contour>
    <contour>
      <point x="239" y="598" type="move" name="topright"/>
    </contour>
  </outline>
</glyph>
<glyph name="m" format="1">
  <advance width="809"/>
  <unicode hex="006D"/>
  <outline>
    <contour>
      <point x="15" y="427" type="line"/>
      <point x="15" y="391" type="line"/>
      <point x="47" y="393" type="line"/>
      <point x="56" y="391"/>
      <point x="60" y="384"/>
      <point x="60" y="373" type="curve" smooth="yes"/>
      <point x="60" y="53" type="line" smooth="yes"/>
      <point x="60" y="42"/>
      <point x="56" y="36"/>
      <point x="47" y="34" type="curve"/>
      <point x="15" y="36" type="line"/>
      <point x="15" y="0" type="line"/>
      <point x="251" y="0" type="line"/>
      <point x="251" y="36" type="line"/>
      <point x="219" y="34" type="line" smooth="yes"/>
      <point x="210" y="33"/>
      <point x="206" y="40"/>
      <point x="206" y="53" type="curve" smooth="yes"/>
      <point x="206" y="392" type="line" smooth="yes"/>
      <point x="206" y="407"/>
      <point x="208" y="418"/>
      <point x="211" y="427" type="curve"/>
    </contour>
    <contour>
      <point x="281" y="437"/>
      <point x="228" y="392"/>
      <point x="200" y="322" type="curve"/>
      <point x="206" y="190" type="line"/>
      <point x="206" y="322"/>
      <point x="274" y="385"/>
      <point x="305" y="385" type="curve" smooth="yes"/>
      <point x="332" y="385"/>
      <point x="335" y="354"/>
      <point x="335" y="300" type="curve" smooth="yes"/>
      <point x="335" y="53" type="line" smooth="yes"/>
      <point x="335" y="42"/>
      <point x="331" y="36"/>
      <point x="322" y="34" type="curve"/>
      <point x="290" y="36" type="line"/>
      <point x="290" y="0" type="line"/>
      <point x="526" y="0" type="line"/>
      <point x="526" y="36" type="line"/>
      <point x="494" y="34" type="line"/>
      <point x="485" y="34"/>
      <point x="481" y="40"/>
      <point x="481" y="53" type="curve" smooth="yes"/>
      <point x="481" y="293" type="line" smooth="yes"/>
      <point x="481" y="392"/>
      <point x="445" y="437"/>
      <point x="362" y="437" type="curve" smooth="yes"/>
    </contour>
    <contour>
      <point x="556" y="437"/>
      <point x="503" y="392"/>
      <point x="475" y="322" type="curve"/>
      <point x="481" y="190" type="line"/>
      <point x="481" y="322"/>
      <point x="549" y="385"/>
      <point x="580" y="385" type="curve" smooth="yes"/>
      <point x="607" y="385"/>
      <point x="610" y="354"/>
      <point x="610" y="300" type="curve" smooth="yes"/>
      <point x="610" y="53" type="line" smooth="yes"/>
      <point x="610" y="42"/>
      <point x="606" y="36"/>
      <point x="597" y="34" type="curve"/>
      <point x="565" y="36" type="line"/>
      <point x="565" y="0" type="line"/>
      <point x="801" y="0" type="line"/>
      <point x="801" y="36" type="line"/>
      <point x="769" y="34" type="line"/>
      <point x="760" y="34"/>
      <point x="756" y="40"/>
      <point x="756" y="53" type="curve" smooth="yes"/>
      <point x="756" y="293" type="line" smooth="yes"/>
      <point x="756" y="392"/>
      <point x="720" y="437"/>
      <point x="637" y="437" type="curve" smooth="yes"/>
    </contour>
  </outline>
</glyph>
<glyph name="o" format="1">
  <advance width="492"/>
  <unicode hex="006F"/>
  <outline>
    <contour>
      <point x="15" y="67"/>
      <point x="90" y="-10"/>
      <point x="246" y="-10" type="curve" smooth="yes"/>
      <point x="405" y="-10"/>
      <point x="477" y="67"/>
      <point x="477" y="214" type="curve" smooth="yes"/>
      <point x="477" y="359"/>
      <point x="405" y="437"/>
      <point x="246" y="437" type="curve" smooth="yes"/>
      <point x="90" y="437"/>
      <point x="15" y="359"/>
      <point x="15" y="214" type="curve" smooth="yes"/>
    </contour>
    <contour>
      <point x="171" y="353"/>
      <point x="195" y="400"/>
      <point x="246" y="400" type="curve" smooth="yes"/>
      <point x="300" y="400"/>
      <point x="321" y="353"/>
      <point x="321" y="212" type="curve" smooth="yes"/>
      <point x="321" y="74"/>
      <point x="300" y="27"/>
      <point x="246" y="27" type="curve" smooth="yes"/>
      <point x="195" y="27"/>
      <point x="171" y="74"/>
      <point x="171" y="212" type="curve" smooth="yes"/>
    </contour>
    <contour>
      <point x="246" y="427" type="move" name="top"/>
    </contour>
  </outline>
</glyph>
<glyph name="p" format="1">
  <advance width="530"/>
  <unicode hex="0070"/>
  <outline>
    <contour>
      <point x="258" y="437"/>
      <point x="225" y="403"/>
      <point x="206" y="352" type="curve"/>
      <point x="206" y="376" type="line" smooth="yes"/>
      <point x="206" y="389"/>
      <point x="207" y="408"/>
      <point x="210" y="427" type="curve"/>
      <point x="15" y="427" type="line"/>
      <point x="15" y="391" type="line"/>
      <point x="47" y="393" type="line"/>
      <point x="58" y="393"/>
      <point x="60" y="381"/>
      <point x="60" y="373" type="curve" smooth="yes"/>
      <point x="60" y="-185" type="line" smooth="yes"/>
      <point x="60" y="-198"/>
      <point x="56" y="-204"/>
      <point x="47" y="-205" type="curve"/>
      <point x="19" y="-203" type="line"/>
      <point x="19" y="-239" type="line"/>
      <point x="281" y="-239" type="line"/>
      <point x="281" y="-203" type="line"/>
      <point x="219" y="-205" type="line" smooth="yes"/>
      <point x="207" y="-205"/>
      <point x="206" y="-192"/>
      <point x="206" y="-185" type="curve" smooth="yes"/>
      <point x="206" y="38" type="line"/>
      <point x="225" y="8"/>
      <point x="265" y="-10"/>
      <point x="320" y="-10" type="curve" smooth="yes"/>
      <point x="451" y="-10"/>
      <point x="510" y="65"/>
      <point x="510" y="212" type="curve" smooth="yes"/>
      <point x="510" y="366"/>
      <point x="455" y="437"/>
      <point x="338" y="437" type="curve" smooth="yes"/>
    </contour>
    <contour>
      <point x="341" y="385"/>
      <point x="354" y="342"/>
      <point x="354" y="212" type="curve" smooth="yes"/>
      <point x="354" y="84"/>
      <point x="338" y="42"/>
      <point x="285" y="42" type="curve" smooth="yes"/>
      <point x="237" y="42"/>
      <point x="208" y="84"/>
      <point x="208" y="187" type="curve" smooth="yes"/>
      <point x="208" y="230" type="line" smooth="yes"/>
      <point x="208" y="323"/>
      <point x="238" y="385"/>
      <point x="290" y="385" type="curve" smooth="yes"/>
    </contour>
  </outline>
</glyph>
<glyph name="u" format="1">
  <advance width="534"/>
  <unicode hex="0075"/>
  <outline>
    <contour>
      <point x="8" y="427" type="line"/>
      <point x="8" y="391" type="line"/>
      <point x="40" y="393" type="line"/>
      <point x="49" y="393"/>
      <point x="53" y="387"/>
      <point x="53" y="374" type="curve" smooth="yes"/>
      <point x="53" y="134" type="line" smooth="yes"/>
      <point x="53" y="35"/>
      <point x="91" y="-10"/>
      <point x="178" y="-10" type="curve" smooth="yes"/>
      <point x="256" y="-10"/>
      <point x="307" y="35"/>
      <point x="334" y="105" type="curve"/>
      <point x="328" y="237" type="line"/>
      <point x="328" y="105"/>
      <point x="275" y="42"/>
      <point x="237" y="42" type="curve" smooth="yes"/>
      <point x="203" y="42"/>
      <point x="199" y="73"/>
      <point x="199" y="127" type="curve" smooth="yes"/>
      <point x="199" y="427" type="line"/>
    </contour>
    <contour>
      <point x="279" y="427" type="line"/>
      <point x="279" y="391" type="line"/>
      <point x="315" y="393" type="line" smooth="yes"/>
      <point x="324" y="393"/>
      <point x="328" y="387"/>
      <point x="328" y="374" type="curve" smooth="yes"/>
      <point x="328" y="35" type="line" smooth="yes"/>
      <point x="328" y="20"/>
      <point x="326" y="9"/>
      <point x="323" y="0" type="curve"/>
      <point x="519" y="0" type="line"/>
      <point x="519" y="36" type="line"/>
      <point x="487" y="34" type="line"/>
      <point x="478" y="36"/>
      <point x="474" y="43"/>
      <point x="474" y="54" type="curve" smooth="yes"/>
      <point x="474" y="427" type="line"/>
    </contour>
    <contour>
      <point x="477" y="10" type="move" name="ogonek"/>
    </contour>
    <contour>
      <point x="253" y="427" type="move" name="top"/>
    </contour>
  </outline>
</glyph>
<glyph name="v" format="1">
  <advance width="485"/>
  <unicode hex="0076"/>
  <outline>
    <contour>
      <point x="299" y="132" type="line"/>
      <point x="199" y="373" type="line" smooth="yes"/>
      <point x="194" y="384"/>
      <point x="205" y="393"/>
      <point x="214" y="393" type="curve"/>
      <point x="254" y="391" type="line"/>
      <point x="254" y="427" type="line"/>
      <point x="-13" y="427" type="line"/>
      <point x="-13" y="391" type="line"/>
      <point x="19" y="393" type="line"/>
      <point x="28" y="394"/>
      <point x="36" y="387"/>
      <point x="39" y="380" type="curve" smooth="yes"/>
      <point x="192" y="-5" type="line"/>
      <point x="265" y="-5" type="line"/>
    </contour>
    <contour>
      <point x="265" y="-5" type="line"/>
      <point x="421" y="378" type="line"/>
      <point x="425" y="389"/>
      <point x="433" y="394"/>
      <point x="444" y="393" type="curve" smooth="yes"/>
      <point x="476" y="391" type="line"/>
      <point x="476" y="427" type="line"/>
      <point x="330" y="427" type="line"/>
      <point x="330" y="391" type="line"/>
      <point x="370" y="393" type="line"/>
      <point x="381" y="394"/>
      <point x="381" y="384"/>
      <point x="378" y="377" type="curve" smooth="yes"/>
      <point x="230" y="2" type="line"/>
    </contour>
  </outline>
</glyph>
<glyph name="y" format="1">
  <advance width="506"/>
  <unicode hex="0079"/>
  <outline>
    <contour>
      <point x="330" y="146" type="line"/>
      <point x="215" y="376" type="line" smooth="yes"/>
      <point x="211" y="384"/>
      <point x="218" y="393"/>
      <point x="227" y="393" type="curve" smooth="yes"/>
      <point x="272" y="391" type="line"/>
      <point x="272" y="427" type="line"/>
      <point x="2" y="427" type="line"/>
      <point x="2" y="391" type="line"/>
      <point x="37" y="393" type="line" smooth="yes"/>
      <point x="45" y="393"/>
      <point x="49" y="388"/>
      <point x="53" y="380" type="curve" smooth="yes"/>
      <point x="253" y="-35" type="line"/>
    </contour>
    <contour>
      <point x="197" y="-113" type="line" smooth="yes"/>
      <point x="181" y="-151"/>
      <point x="173" y="-163"/>
      <point x="154" y="-163" type="curve" smooth="yes"/>
      <point x="122" y="-163"/>
      <point x="132" y="-99"/>
      <point x="67" y="-99" type="curve" smooth="yes"/>
      <point x="38" y="-99"/>
      <point x="4" y="-121"/>
      <point x="4" y="-168" type="curve" smooth="yes"/>
      <point x="7" y="-216"/>
      <point x="43" y="-239"/>
      <point x="94" y="-239" type="curve" smooth="yes"/>
      <point x="156" y="-239"/>
      <point x="199" y="-212"/>
      <point x="241" y="-111" type="curve" smooth="yes"/>
      <point x="443" y="374" type="line" smooth="yes"/>
      <point x="448" y="387"/>
      <point x="457" y="393"/>
      <point x="468" y="393" type="curve" smooth="yes"/>
      <point x="470" y="393" type="line"/>
      <point x="506" y="391" type="line"/>
      <point x="506" y="427" type="line"/>
      <point x="346" y="427" type="line"/>
      <point x="346" y="391" type="line"/>
      <point x="393" y="393" type="line" smooth="yes"/>
      <point x="404" y="393"/>
      <point x="406" y="386"/>
      <point x="403" y="378" type="curve"/>
    </contour>
    <contour>
      <point x="280" y="427" type="move" name="top"/>
    </contour>
  </outline>
</glyph>
<glyph name="bar" format="1">
  <advance width="242"/>
  <unicode hex="007C"/>
  <outline>
    <contour>
      <point x="144" y="-239" type="line"/>
      <point x="144" y="730" type="line"/>
      <point x="98" y="730" type="line"/>
      <point x="98" y="-239" type="line"/>
    </contour>
  </outline>
</glyph>
<glyph name="asciitilde" format="1">
  <advance width="460"/>
  <unicode hex="007E"/>
  <outline>
    <contour>
      <point x="49" y="221" type="line"/>
      <point x="80" y="266"/>
      <point x="98" y="275"/>
      <point x="131" y="275" type="curve" smooth="yes"/>
      <point x="192" y="275"/>
      <point x="262" y="210"/>
      <point x="325" y="210" type="curve" smooth="yes"/>
      <point x="369" y="210"/>
      <point x="415" y="240"/>
      <point x="444" y="293" type="curve"/>
      <point x="411" y="327" type="line"/>
      <point x="380" y="282"/>
      <point x="358" y="268"/>
      <point x="325" y="268" type="curve" smooth="yes"/>
      <point x="264" y="268"/>
      <point x="196" y="333"/>
      <point x="131" y="333" type="curve" smooth="yes"/>
      <point x="87" y="333"/>
      <point x="45" y="309"/>
      <point x="16" y="256" type="curve"/>
    </contour>
  </outline>
</glyph>
<glyph name="cent" format="1">
  <advance width="421"/>
  <unicode hex="00A2"/>
  <outline>
    <contour>
      <point x="206" y="124" type="line"/>
      <point x="206" y="-95" type="line"/>
      <point x="253" y="-95" type="line"/>
      <point x="253" y="126" type="line"/>
    </contour>
    <contour>
      <point x="253" y="455" type="line"/>
      <point x="253" y="647" type="line"/>
      <point x="206" y="647" type="line"/>
      <point x="206" y="458" type="line"/>
    </contour>
    <contour>
      <point x="124" y="471"/>
      <point x="31" y="424"/>
      <point x="31" y="289" type="curve" smooth="yes"/>
      <point x="31" y="143"/>
      <point x="139" y="111"/>
      <point x="232" y="111" type="curve" smooth="yes"/>
      <point x="299" y="111"/>
      <point x="359" y="125"/>
      <point x="389" y="207" type="curve"/>
      <point x="359" y="216" type="line"/>
      <point x="331" y="157"/>
      <point x="297" y="148"/>
      <point x="267" y="148" type="curve" smooth="yes"/>
      <point x="225" y="148"/>
      <point x="178" y="163"/>
      <point x="178" y="302" type="curve" smooth="yes"/>
      <point x="178" y="407"/>
      <point x="205" y="438"/>
      <point x="241" y="438" type="curve" smooth="yes"/>
      <point x="261" y="438"/>
      <point x="278" y="429"/>
      <point x="278" y="407" type="curve" smooth="yes"/>
      <point x="278" y="394"/>
      <point x="271" y="388"/>
      <point x="271" y="373" type="curve" smooth="yes"/>
      <point x="271" y="341"/>
      <point x="299" y="326"/>
      <point x="330" y="326" type="curve" smooth="yes"/>
      <point x="371" y="326"/>
      <point x="394" y="353"/>
      <point x="394" y="384" type="curve" smooth="yes"/>
      <point x="394" y="433"/>
      <point x="334" y="471"/>
      <point x="235" y="471" type="curve" smooth="yes"/>
    </contour>
  </outline>
</glyph>
<glyph name="sterling" format="1">
  <advance width="507"/>
  <unicode hex="00A3"/>
  <outline>
    <contour>
      <point x="391" y="296" type="line"/>
      <point x="391" y="329" type="line"/>
      <point x="36" y="329" type="line"/>
      <point x="36" y="296" type="line"/>
    </contour>
    <contour>
      <point x="170" y="607"/>
      <point x="106" y="547"/>
      <point x="106" y="410" type="curve" smooth="yes"/>
      <point x="116" y="156" type="line" smooth="yes"/>
      <point x="116" y="102"/>
      <point x="81" y="50"/>
      <point x="28" y="21" type="curve"/>
      <point x="30" y="-3" type="line"/>
      <point x="57" y="-2"/>
      <point x="114" y="0"/>
      <point x="150" y="0" type="curve" smooth="yes"/>
      <point x="376" y="0" type="line" smooth="yes"/>
      <point x="412" y="0"/>
      <point x="437" y="-3"/>
      <point x="454" y="-3" type="curve"/>
      <point x="464" y="168" type="line"/>
      <point x="429" y="168" type="line"/>
      <point x="429" y="120"/>
      <point x="405" y="105"/>
      <point x="308" y="105" type="curve" smooth="yes"/>
      <point x="138" y="105" type="line"/>
      <point x="150" y="79" type="line"/>
      <point x="207" y="109"/>
      <point x="272" y="173"/>
      <point x="272" y="246" type="curve" smooth="yes"/>
      <point x="272" y="317" type="line" smooth="yes"/>
      <point x="272" y="375"/>
      <point x="255" y="461"/>
      <point x="255" y="487" type="curve" smooth="yes"/>
      <point x="255" y="541"/>
      <point x="278" y="574"/>
      <point x="309" y="574" type="curve" smooth="yes"/>
      <point x="330" y="574"/>
      <point x="341" y="565"/>
      <point x="341" y="542" type="curve" smooth="yes"/>
      <point x="341" y="527"/>
      <point x="332" y="516"/>
      <point x="332" y="500" type="curve" smooth="yes"/>
      <point x="332" y="473"/>
      <point x="360" y="454"/>
      <point x="395" y="454" type="curve" smooth="yes"/>
      <point x="431" y="454"/>
      <point x="463" y="478"/>
      <point x="463" y="517" type="curve" smooth="yes"/>
      <point x="463" y="566"/>
      <point x="412" y="607"/>
      <point x="327" y="607" type="curve" smooth="yes"/>
    </contour>
  </outline>
</glyph>
<glyph name="section" format="1">
  <advance width="440"/>
  <unicode hex="00A7"/>
  <outline>
    <contour>
      <point x="97" y="607"/>
      <point x="25" y="548"/>
      <point x="25" y="457" type="curve" smooth="yes"/>
      <point x="25" y="403"/>
      <point x="50" y="353"/>
      <point x="131" y="314" type="curve" smooth="yes"/>
      <point x="220" y="271" type="line" smooth="yes"/>
      <point x="277" y="244"/>
      <point x="300" y="231"/>
      <point x="300" y="198" type="curve" smooth="yes"/>
      <point x="300" y="175"/>
      <point x="288" y="157"/>
      <point x="263" y="144" type="curve"/>
      <point x="287" y="125" type="line"/>
      <point x="376" y="158"/>
      <point x="415" y="210"/>
      <point x="415" y="269" type="curve" smooth="yes"/>
      <point x="415" y="312"/>
      <point x="394" y="356"/>
      <point x="321" y="391" type="curve" smooth="yes"/>
      <point x="198" y="450" type="line" smooth="yes"/>
      <point x="164" y="466"/>
      <point x="140" y="485"/>
      <point x="140" y="515" type="curve" smooth="yes"/>
      <point x="140" y="552"/>
      <point x="177" y="574"/>
      <point x="224" y="574" type="curve" smooth="yes"/>
      <point x="257" y="574"/>
      <point x="294" y="563"/>
      <point x="294" y="530" type="curve" smooth="yes"/>
      <point x="294" y="514"/>
      <point x="285" y="506"/>
      <point x="285" y="487" type="curve" smooth="yes"/>
      <point x="285" y="461"/>
      <point x="301" y="437"/>
      <point x="344" y="437" type="curve" smooth="yes"/>
      <point x="389" y="437"/>
      <point x="415" y="464"/>
      <point x="415" y="501" type="curve" smooth="yes"/>
      <point x="415" y="575"/>
      <point x="312" y="607"/>
      <point x="221" y="607" type="curve" smooth="yes"/>
    </contour>
    <contour>
      <point x="64" y="314"/>
      <point x="25" y="262"/>
      <point x="25" y="203" type="curve" smooth="yes"/>
      <point x="25" y="160"/>
      <point x="46" y="116"/>
      <point x="119" y="81" type="curve" smooth="yes"/>
      <point x="242" y="22" type="line" smooth="yes"/>
      <point x="276" y="6"/>
      <point x="300" y="-13"/>
      <point x="300" y="-43" type="curve" smooth="yes"/>
      <point x="300" y="-80"/>
      <point x="263" y="-102"/>
      <point x="216" y="-102" type="curve" smooth="yes"/>
      <point x="183" y="-102"/>
      <point x="146" y="-91"/>
      <point x="146" y="-58" type="curve" smooth="yes"/>
      <point x="146" y="-42"/>
      <point x="155" y="-34"/>
      <point x="155" y="-15" type="curve" smooth="yes"/>
      <point x="155" y="11"/>
      <point x="139" y="35"/>
      <point x="96" y="35" type="curve" smooth="yes"/>
      <point x="51" y="35"/>
      <point x="25" y="8"/>
      <point x="25" y="-29" type="curve" smooth="yes"/>
      <point x="25" y="-103"/>
      <point x="128" y="-135"/>
      <point x="219" y="-135" type="curve" smooth="yes"/>
      <point x="343" y="-135"/>
      <point x="415" y="-76"/>
      <point x="415" y="15" type="curve" smooth="yes"/>
      <point x="415" y="69"/>
      <point x="390" y="119"/>
      <point x="309" y="158" type="curve" smooth="yes"/>
      <point x="220" y="201" type="line" smooth="yes"/>
      <point x="163" y="228"/>
      <point x="140" y="241"/>
      <point x="140" y="274" type="curve" smooth="yes"/>
      <point x="140" y="297"/>
      <point x="152" y="315"/>
      <point x="177" y="328" type="curve"/>
      <point x="153" y="347" type="line"/>
    </contour>
  </outline>
</glyph>
<glyph name="dieresis" format="1">
  <advance width="435"/>
  <unicode hex="00A8"/>
  <outline>
    <component base="dotaccent" xOffset="-22"/>
    <component base="dotaccent" xOffset="194"/>
    <contour>
      <point x="218" y="420" type="move" name="_top"/>
    </contour>
  </outline>
</glyph>
<glyph name="copyright" format="1">
  <advance width="703"/>
  <unicode hex="00A9"/>
  <outline>
    <contour>
      <point x="43" y="126"/>
      <point x="179" y="-10"/>
      <point x="351" y="-10" type="curve" smooth="yes"/>
      <point x="521" y="-10"/>
      <point x="660" y="126"/>
      <point x="660" y="298" type="curve" smooth="yes"/>
      <point x="660" y="468"/>
      <point x="521" y="607"/>
      <point x="351" y="607" type="curve" smooth="yes"/>
      <point x="179" y="607"/>
      <point x="43" y="468"/>
      <point x="43" y="298" type="curve" smooth="yes"/>
    </contour>
    <contour>
      <point x="85" y="446"/>
      <point x="200" y="567"/>
      <point x="350" y="567" type="curve" smooth="yes"/>
      <point x="500" y="567"/>
      <point x="616" y="446"/>
      <point x="616" y="298" type="curve" smooth="yes"/>
      <point x="616" y="148"/>
      <point x="500" y="30"/>
      <point x="350" y="30" type="curve" smooth="yes"/>
      <point x="200" y="30"/>
      <point x="85" y="148"/>
      <point x="85" y="298" type="curve" smooth="yes"/>
    </contour>
    <contour>
      <point x="177" y="194"/>
      <point x="246" y="130"/>
      <point x="360" y="130" type="curve" smooth="yes"/>
      <point x="413" y="130"/>
      <point x="447" y="158"/>
      <point x="491" y="158" type="curve" smooth="yes"/>
      <point x="494" y="158" type="line"/>
      <point x="493" y="165"/>
      <point x="493" y="171"/>
      <point x="493" y="181" type="curve" smooth="yes"/>
      <point x="493" y="188"/>
      <point x="493" y="202"/>
      <point x="496" y="234" type="curve"/>
      <point x="467" y="234" type="line"/>
      <point x="459" y="195"/>
      <point x="423" y="164"/>
      <point x="389" y="164" type="curve" smooth="yes"/>
      <point x="337" y="164"/>
      <point x="308" y="195"/>
      <point x="308" y="298" type="curve" smooth="yes"/>
      <point x="308" y="406"/>
      <point x="334" y="437"/>
      <point x="387" y="437" type="curve" smooth="yes"/>
      <point x="420" y="437"/>
      <point x="457" y="406"/>
      <point x="464" y="369" type="curve"/>
      <point x="491" y="372" type="line"/>
      <point x="490" y="368"/>
      <point x="489" y="386"/>
      <point x="489" y="405" type="curve" smooth="yes"/>
      <point x="489" y="418"/>
      <point x="490" y="431"/>
      <point x="491" y="443" type="curve"/>
      <point x="447" y="443"/>
      <point x="433" y="470"/>
      <point x="363" y="470" type="curve" smooth="yes"/>
      <point x="245" y="470"/>
      <point x="177" y="407"/>
      <point x="177" y="298" type="curve" smooth="yes"/>
    </contour>
  </outline>
</glyph>
<glyph name="registered" format="1">
  <advance width="485"/>
  <unicode hex="00AE"/>
  <outline>
    <contour>
      <point x="122" y="607"/>
      <point x="39" y="527"/>
      <point x="39" y="410" type="curve" smooth="yes"/>
      <point x="39" y="293"/>
      <point x="122" y="213"/>
      <point x="243" y="213" type="curve" smooth="yes"/>
      <point x="362" y="213"/>
      <point x="445" y="293"/>
      <point x="445" y="410" type="curve" smooth="yes"/>
      <point x="445" y="527"/>
      <point x="362" y="607"/>
      <point x="243" y="607" type="curve" smooth="yes"/>
    </contour>
    <contour>
      <point x="342" y="574"/>
      <point x="409" y="508"/>
      <point x="409" y="410" type="curve" smooth="yes"/>
      <point x="409" y="312"/>
      <point x="342" y="246"/>
      <point x="242" y="246" type="curve" smooth="yes"/>
      <point x="142" y="246"/>
      <point x="75" y="312"/>
      <point x="75" y="410" type="curve" smooth="yes"/>
      <point x="75" y="508"/>
      <point x="142" y="574"/>
      <point x="242" y="574" type="curve" smooth="yes"/>
    </contour>
    <contour>
      <point x="131" y="483" type="line"/>
      <point x="148" y="483" type="line" smooth="yes"/>
      <point x="155" y="483"/>
      <point x="157" y="480"/>
      <point x="157" y="476" type="curve" smooth="yes"/>
      <point x="157" y="352" type="line" smooth="yes"/>
      <point x="157" y="348"/>
      <point x="155" y="345"/>
      <point x="151" y="345" type="curve" smooth="yes"/>
      <point x="131" y="345" type="line"/>
      <point x="131" y="316" type="line"/>
      <point x="254" y="316" type="line"/>
      <point x="254" y="345" type="line"/>
      <point x="241" y="345" type="line" smooth="yes"/>
      <point x="235" y="345"/>
      <point x="232" y="347"/>
      <point x="232" y="352" type="curve" smooth="yes"/>
      <point x="232" y="383" type="line"/>
      <point x="253" y="383" type="line" smooth="yes"/>
      <point x="260" y="383"/>
      <point x="271" y="383"/>
      <point x="271" y="361" type="curve"/>
      <point x="271" y="357" type="line"/>
      <point x="271" y="330"/>
      <point x="284" y="316"/>
      <point x="315" y="316" type="curve" smooth="yes"/>
      <point x="368" y="316" type="line"/>
      <point x="368" y="346" type="line"/>
      <point x="354" y="343"/>
      <point x="351" y="355"/>
      <point x="351" y="361" type="curve"/>
      <point x="349" y="389"/>
      <point x="316" y="405"/>
      <point x="285" y="405" type="curve"/>
      <point x="328" y="412"/>
      <point x="347" y="436"/>
      <point x="347" y="466" type="curve" smooth="yes"/>
      <point x="347" y="497"/>
      <point x="323" y="512"/>
      <point x="271" y="512" type="curve" smooth="yes"/>
      <point x="131" y="512" type="line"/>
    </contour>
    <contour>
      <point x="256" y="483"/>
      <point x="272" y="476"/>
      <point x="272" y="451" type="curve" smooth="yes"/>
      <point x="272" y="434"/>
      <point x="263" y="416"/>
      <point x="242" y="416" type="curve" smooth="yes"/>
      <point x="232" y="416" type="line"/>
      <point x="232" y="480" type="line" smooth="yes"/>
      <point x="232" y="482"/>
      <point x="234" y="483"/>
      <point x="237" y="483" type="curve" smooth="yes"/>
      <point x="247" y="483" type="line" smooth="yes"/>
    </contour>
  </outline>
</glyph>
<glyph name="degree" format="1">
  <advance width="374"/>
  <unicode hex="00B0"/>
  <outline>
    <contour>
      <point x="84" y="447"/>
      <point x="130" y="401"/>
      <point x="187" y="401" type="curve" smooth="yes"/>
      <point x="244" y="401"/>
      <point x="290" y="447"/>
      <point x="290" y="504" type="curve" smooth="yes"/>
      <point x="290" y="561"/>
      <point x="244" y="607"/>
      <point x="187" y="607" type="curve" smooth="yes"/>
      <point x="130" y="607"/>
      <point x="84" y="561"/>
      <point x="84" y="504" type="curve" smooth="yes"/>
    </contour>
    <contour>
      <point x="136" y="533"/>
      <point x="159" y="556"/>
      <point x="187" y="556" type="curve" smooth="yes"/>
      <point x="215" y="556"/>
      <point x="238" y="533"/>
      <point x="238" y="504" type="curve" smooth="yes"/>
      <point x="238" y="475"/>
      <point x="215" y="452"/>
      <point x="187" y="452" type="curve" smooth="yes"/>
      <point x="159" y="452"/>
      <point x="136" y="475"/>
      <point x="136" y="504" type="curve" smooth="yes"/>
    </contour>
  </outline>
</glyph>
<glyph name="plusminus" format="1">
  <advance width="460"/>
  <unicode hex="00B1"/>
  <outline>
    <contour>
      <point x="440" y="0" type="line"/>
      <point x="440" y="51" type="line"/>
      <point x="20" y="51" type="line"/>
      <point x="20" y="0" type="line"/>
    </contour>
    <contour>
      <point x="202" y="273" type="line"/>
      <point x="202" y="89" type="line"/>
      <point x="257" y="89" type="line"/>
      <point x="257" y="273" type="line"/>
      <point x="440" y="273" type="line"/>
      <point x="440" y="324" type="line"/>
      <point x="257" y="324" type="line"/>
      <point x="257" y="506" type="line"/>
      <point x="202" y="506" type="line"/>
      <point x="202" y="324" type="line"/>
      <point x="20" y="324" type="line"/>
      <point x="20" y="273" type="line"/>
    </contour>
  </outline>
</glyph>
<glyph name="ordmasculine" format="1">
  <advance width="351"/>
  <unicode hex="00BA"/>
  <outline>
    <contour>
      <point x="14" y="404"/>
      <point x="65" y="344"/>
      <point x="175" y="344" type="curve" smooth="yes"/>
      <point x="277" y="344"/>
      <point x="337" y="395"/>
      <point x="337" y="480" type="curve" smooth="yes"/>
      <point x="337" y="569"/>
      <point x="273" y="618"/>
      <point x="175" y="618" type="curve" smooth="yes"/>
      <point x="76" y="618"/>
      <point x="14" y="567"/>
      <point x="14" y="480" type="curve" smooth="yes"/>
    </contour>
    <contour>
      <point x="135" y="554"/>
      <point x="143" y="584"/>
      <point x="175" y="584" type="curve" smooth="yes"/>
      <point x="207" y="584"/>
      <point x="216" y="558"/>
      <point x="216" y="480" type="curve" smooth="yes"/>
      <point x="216" y="396"/>
      <point x="205" y="378"/>
      <point x="175" y="378" type="curve" smooth="yes"/>
      <point x="141" y="378"/>
      <point x="135" y="408"/>
      <point x="135" y="480" type="curve" smooth="yes"/>
    </contour>
  </outline>
</glyph>
<glyph name="AE" format="1">
  <advance width="851"/>
  <unicode hex="00C6"/>
  <outline>
    <contour>
      <point x="778" y="598"/>
      <point x="762" y="597"/>
      <point x="743" y="597" type="curve" smooth="yes"/>
      <point x="272" y="597" type="line"/>
      <point x="272" y="555" type="line"/>
      <point x="323" y="557" type="line"/>
      <point x="334" y="557"/>
      <point x="345" y="545"/>
      <point x="338" y="533" type="curve" smooth="yes"/>
      <point x="71" y="96" type="line" smooth="yes"/>
      <point x="45" y="53"/>
      <point x="30" y="34"/>
      <point x="11" y="37" type="curve"/>
      <point x="-20" y="40" type="line"/>
      <point x="-20" y="0" type="line"/>
      <point x="169" y="0" type="line"/>
      <point x="169" y="40" type="line"/>
      <point x="118" y="37" type="line" smooth="yes"/>
      <point x="85" y="34"/>
      <point x="102" y="70"/>
      <point x="112" y="90" type="curve"/>
      <point x="165" y="178" type="line"/>
      <point x="389" y="178" type="line"/>
      <point x="411" y="62" type="line"/>
      <point x="414" y="50"/>
      <point x="406" y="36"/>
      <point x="389" y="37" type="curve" smooth="yes"/>
      <point x="332" y="40" type="line"/>
      <point x="332" y="0" type="line"/>
      <point x="709" y="0" type="line" smooth="yes"/>
      <point x="726" y="0"/>
      <point x="767" y="0"/>
      <point x="807" y="-3" type="curve"/>
      <point x="807" y="171" type="line"/>
      <point x="770" y="171" type="line"/>
      <point x="770" y="84"/>
      <point x="723" y="36"/>
      <point x="629" y="36" type="curve" smooth="yes"/>
      <point x="593" y="36" type="line" smooth="yes"/>
      <point x="582" y="36"/>
      <point x="575" y="44"/>
      <point x="572" y="55" type="curve"/>
      <point x="526" y="286" type="line"/>
      <point x="575" y="286" type="line" smooth="yes"/>
      <point x="618" y="286"/>
      <point x="651" y="244"/>
      <point x="651" y="190" type="curve"/>
      <point x="687" y="190" type="line"/>
      <point x="687" y="426" type="line"/>
      <point x="649" y="426" type="line"/>
      <point x="649" y="365"/>
      <point x="616" y="324"/>
      <point x="573" y="324" type="curve" smooth="yes"/>
      <point x="520" y="324" type="line"/>
      <point x="477" y="559" type="line"/>
      <point x="609" y="559" type="line" smooth="yes"/>
      <point x="705" y="559"/>
      <point x="751" y="524"/>
      <point x="751" y="443" type="curve"/>
      <point x="787" y="443" type="line"/>
      <point x="787" y="599" type="line"/>
    </contour>
    <contour>
      <point x="382" y="216" type="line"/>
      <point x="189" y="216" type="line"/>
      <point x="336" y="459" type="line"/>
    </contour>
    <contour>
      <point x="458" y="598" type="move" name="top"/>
    </contour>
  </outline>
</glyph>
<glyph name="multiply" format="1">
  <advance width="460"/>
  <unicode hex="00D7"/>
  <outline>
    <contour>
      <point x="99" y="97" type="line"/>
      <point x="230" y="228" type="line"/>
      <point x="363" y="97" type="line"/>
      <point x="401" y="135" type="line"/>
      <point x="269" y="267" type="line"/>
      <point x="401" y="398" type="line"/>
      <point x="361" y="438" type="line"/>
      <point x="229" y="306" type="line"/>
      <point x="100" y="437" type="line"/>
      <point x="61" y="398" type="line"/>
      <point x="192" y="268" type="line"/>
      <point x="59" y="136" type="line"/>
    </contour>
  </outline>
</glyph>
<glyph name="Oslash" format="1">
  <advance width="680"/>
  <unicode hex="00D8"/>
  <outline>
    <contour>
      <point x="577" y="661" type="line"/>
      <point x="530" y="690" type="line"/>
      <point x="84" y="-70" type="line"/>
      <point x="131" y="-96" type="line"/>
    </contour>
    <component base="O"/>
    <contour>
      <point x="332" y="598" type="move" name="top"/>
    </contour>
  </outline>
</glyph>
<glyph name="germandbls" format="1">
  <advance width="575"/>
  <unicode hex="00DF"/>
  <outline>
    <contour>
      <point x="137" y="737"/>
      <point x="59" y="672"/>
      <point x="59" y="512" type="curve" smooth="yes"/>
      <point x="59" y="48" type="line" smooth="yes"/>
      <point x="59" y="37"/>
      <point x="55" y="27"/>
      <point x="47" y="27" type="curve"/>
      <point x="15" y="29" type="line"/>
      <point x="15" y="0" type="line"/>
      <point x="250" y="0" type="line"/>
      <point x="250" y="29" type="line"/>
      <point x="219" y="27" type="line"/>
      <point x="210" y="27"/>
      <point x="205" y="37"/>
      <point x="205" y="48" type="curve" smooth="yes"/>
      <point x="205" y="434" type="line" smooth="yes"/>
      <point x="205" y="484"/>
      <point x="190" y="563"/>
      <point x="190" y="604" type="curve" smooth="yes"/>
      <point x="190" y="660"/>
      <point x="217" y="702"/>
      <point x="266" y="702" type="curve" smooth="yes"/>
      <point x="318" y="702"/>
      <point x="344" y="655"/>
      <point x="344" y="583" type="curve" smooth="yes"/>
      <point x="344" y="541"/>
      <point x="335" y="506"/>
      <point x="321" y="481" type="curve" smooth="yes"/>
      <point x="295" y="433"/>
      <point x="251" y="411"/>
      <point x="251" y="355" type="curve" smooth="yes"/>
      <point x="251" y="316"/>
      <point x="273" y="285"/>
      <point x="314" y="250" type="curve" smooth="yes"/>
      <point x="369" y="203" type="line" smooth="yes"/>
      <point x="406" y="171"/>
      <point x="425" y="132"/>
      <point x="425" y="89" type="curve" smooth="yes"/>
      <point x="425" y="44"/>
      <point x="404" y="21"/>
      <point x="379" y="21" type="curve" smooth="yes"/>
      <point x="363" y="21"/>
      <point x="360" y="31"/>
      <point x="360" y="39" type="curve" smooth="yes"/>
      <point x="360" y="52"/>
      <point x="367" y="66"/>
      <point x="367" y="83" type="curve" smooth="yes"/>
      <point x="367" y="104"/>
      <point x="356" y="125"/>
      <point x="318" y="125" type="curve" smooth="yes"/>
      <point x="279" y="125"/>
      <point x="255" y="103"/>
      <point x="255" y="67" type="curve" smooth="yes"/>
      <point x="255" y="18"/>
      <point x="299" y="-8"/>
      <point x="379" y="-8" type="curve" smooth="yes"/>
      <point x="488" y="-8"/>
      <point x="564" y="41"/>
      <point x="564" y="130" type="curve" smooth="yes"/>
      <point x="564" y="174"/>
      <point x="545" y="214"/>
      <point x="507" y="249" type="curve" smooth="yes"/>
      <point x="442" y="308" type="line" smooth="yes"/>
      <point x="391" y="354"/>
      <point x="360" y="383"/>
      <point x="360" y="417" type="curve" smooth="yes"/>
      <point x="360" y="437"/>
      <point x="370" y="456"/>
      <point x="384" y="471" type="curve" smooth="yes"/>
      <point x="416" y="506"/>
      <point x="483" y="543"/>
      <point x="483" y="618" type="curve" smooth="yes"/>
      <point x="483" y="695"/>
      <point x="412" y="737"/>
      <point x="289" y="737" type="curve" smooth="yes"/>
    </contour>
  </outline>
</glyph>
<glyph name="ae" format="1">
  <advance width="722"/>
  <unicode hex="00E6"/>
  <outline>
    <contour>
      <point x="444" y="437"/>
      <point x="399" y="429"/>
      <point x="363" y="411" type="curve"/>
      <point x="330" y="429"/>
      <point x="284" y="437"/>
      <point x="227" y="437" type="curve" smooth="yes"/>
      <point x="108" y="437"/>
      <point x="35" y="392"/>
      <point x="35" y="327" type="curve" smooth="yes"/>
      <point x="35" y="291"/>
      <point x="63" y="265"/>
      <point x="104" y="265" type="curve" smooth="yes"/>
      <point x="137" y="265"/>
      <point x="165" y="283"/>
      <point x="165" y="315" type="curve" smooth="yes"/>
      <point x="165" y="331"/>
      <point x="156" y="340"/>
      <point x="156" y="359" type="curve" smooth="yes"/>
      <point x="156" y="376"/>
      <point x="168" y="400"/>
      <point x="216" y="400" type="curve" smooth="yes"/>
      <point x="274" y="400"/>
      <point x="274" y="356"/>
      <point x="274" y="323" type="curve" smooth="yes"/>
      <point x="274" y="242" type="line"/>
      <point x="89" y="242"/>
      <point x="8" y="200"/>
      <point x="8" y="108" type="curve" smooth="yes"/>
      <point x="8" y="32"/>
      <point x="53" y="-5"/>
      <point x="136" y="-5" type="curve" smooth="yes"/>
      <point x="203" y="-5"/>
      <point x="259" y="17"/>
      <point x="295" y="74" type="curve"/>
      <point x="331" y="17"/>
      <point x="398" y="-10"/>
      <point x="501" y="-10" type="curve" smooth="yes"/>
      <point x="603" y="-10"/>
      <point x="671" y="28"/>
      <point x="703" y="93" type="curve"/>
      <point x="675" y="112" type="line"/>
      <point x="656" y="74"/>
      <point x="612" y="33"/>
      <point x="545" y="33" type="curve" smooth="yes"/>
      <point x="461" y="34"/>
      <point x="419" y="95"/>
      <point x="419" y="207" type="curve"/>
      <point x="707" y="207" type="line"/>
      <point x="707" y="376"/>
      <point x="631" y="437"/>
      <point x="498" y="437" type="curve" smooth="yes"/>
    </contour>
    <contour>
      <point x="274" y="149" type="line"/>
      <point x="267" y="96"/>
      <point x="238" y="61"/>
      <point x="202" y="61" type="curve" smooth="yes"/>
      <point x="175" y="61"/>
      <point x="159" y="79"/>
      <point x="159" y="121" type="curve" smooth="yes"/>
      <point x="159" y="174"/>
      <point x="192" y="205"/>
      <point x="274" y="205" type="curve"/>
    </contour>
    <contour>
      <point x="540" y="400"/>
      <point x="557" y="358"/>
      <point x="557" y="275" type="curve" smooth="yes"/>
      <point x="557" y="248"/>
      <point x="549" y="242"/>
      <point x="537" y="242" type="curve" smooth="yes"/>
      <point x="420" y="242" type="line"/>
      <point x="420" y="328"/>
      <point x="440" y="400"/>
      <point x="494" y="400" type="curve" smooth="yes"/>
    </contour>
    <contour>
      <point x="361" y="427" type="move" name="top"/>
    </contour>
  </outline>
</glyph>
<glyph name="divide" format="1">
  <advance width="460"/>
  <unicode hex="00F7"/>
  <outline>
    <contour>
      <point x="441" y="239" type="line"/>
      <point x="441" y="300" type="line"/>
      <point x="19" y="300" type="line"/>
      <point x="19" y="239" type="line"/>
    </contour>
    <contour>
      <point x="145" y="53"/>
      <point x="180" y="28"/>
      <point x="229" y="28" type="curve" smooth="yes"/>
      <point x="279" y="28"/>
      <point x="314" y="53"/>
      <point x="314" y="96" type="curve" smooth="yes"/>
      <point x="314" y="137"/>
      <point x="279" y="163"/>
      <point x="229" y="163" type="curve" smooth="yes"/>
      <point x="180" y="163"/>
      <point x="145" y="137"/>
      <point x="145" y="96" type="curve" smooth="yes"/>
    </contour>
    <contour>
      <point x="145" y="396"/>
      <point x="180" y="371"/>
      <point x="229" y="371" type="curve" smooth="yes"/>
      <point x="279" y="371"/>
      <point x="314" y="396"/>
      <point x="314" y="439" type="curve" smooth="yes"/>
      <point x="314" y="480"/>
      <point x="279" y="506"/>
      <point x="229" y="506" type="curve" smooth="yes"/>
      <point x="180" y="506"/>
      <point x="145" y="480"/>
      <point x="145" y="439" type="curve" smooth="yes"/>
    </contour>
  </outline>
</glyph>
<glyph name="oslash" format="1">
  <advance width="492"/>
  <unicode hex="00F8"/>
  <outline>
    <contour>
      <point x="427" y="479" type="line"/>
      <point x="383" y="508" type="line"/>
      <point x="63" y="-64" type="line"/>
      <point x="111" y="-89" type="line"/>
    </contour>
    <component base="o"/>
    <contour>
      <point x="250" y="427" type="move" name="top"/>
    </contour>
  </outline>
</glyph>
<glyph name="thorn" format="1">
  <advance width="529"/>
  <unicode hex="00FE"/>
  <outline>
    <contour>
      <point x="15" y="731" type="line"/>
      <point x="15" y="696" type="line"/>
      <point x="47" y="698" type="line"/>
      <point x="55" y="695"/>
      <point x="59" y="688"/>
      <point x="59" y="677" type="curve" smooth="yes"/>
      <point x="59" y="-185" type="line" smooth="yes"/>
      <point x="59" y="-198"/>
      <point x="55" y="-204"/>
      <point x="46" y="-205" type="curve"/>
      <point x="18" y="-203" type="line"/>
      <point x="18" y="-239" type="line"/>
      <point x="280" y="-239" type="line"/>
      <point x="280" y="-203" type="line"/>
      <point x="218" y="-205" type="line" smooth="yes"/>
      <point x="206" y="-205"/>
      <point x="205" y="-192"/>
      <point x="205" y="-185" type="curve" smooth="yes"/>
      <point x="205" y="38" type="line"/>
      <point x="224" y="8"/>
      <point x="264" y="-10"/>
      <point x="319" y="-10" type="curve" smooth="yes"/>
      <point x="450" y="-10"/>
      <point x="509" y="64"/>
      <point x="509" y="209" type="curve" smooth="yes"/>
      <point x="509" y="360"/>
      <point x="454" y="430"/>
      <point x="337" y="430" type="curve" smooth="yes"/>
      <point x="257" y="430"/>
      <point x="224" y="396"/>
      <point x="205" y="345" type="curve"/>
      <point x="205" y="731" type="line"/>
    </contour>
    <contour>
      <point x="340" y="378"/>
      <point x="353" y="336"/>
      <point x="353" y="209" type="curve" smooth="yes"/>
      <point x="353" y="83"/>
      <point x="337" y="42"/>
      <point x="284" y="42" type="curve" smooth="yes"/>
      <point x="236" y="42"/>
      <point x="207" y="83"/>
      <point x="207" y="184" type="curve" smooth="yes"/>
      <point x="207" y="226" type="line" smooth="yes"/>
      <point x="207" y="317"/>
      <point x="237" y="378"/>
      <point x="289" y="378" type="curve" smooth="yes"/>
    </contour>
  </outline>
</glyph>
<glyph name="dotlessi" format="1">
  <advance width="265"/>
  <unicode hex="0131"/>
  <outline>
    <contour>
      <point x="16" y="427" type="line"/>
      <point x="16" y="391" type="line"/>
      <point x="48" y="393" type="line"/>
      <point x="56" y="391"/>
      <point x="60" y="384"/>
      <point x="60" y="373" type="curve" smooth="yes"/>
      <point x="60" y="53" type="line" smooth="yes"/>
      <point x="60" y="40"/>
      <point x="56" y="33"/>
      <point x="47" y="34" type="curve" smooth="yes"/>
      <point x="15" y="36" type="line"/>
      <point x="15" y="0" type="line"/>
      <point x="250" y="0" type="line"/>
      <point x="250" y="36" type="line"/>
      <point x="219" y="34" type="line" smooth="yes"/>
      <point x="210" y="33"/>
      <point x="206" y="40"/>
      <point x="206" y="53" type="curve" smooth="yes"/>
      <point x="206" y="427" type="line"/>
    </contour>
    <contour>
      <point x="220" y="13" type="move" name="ogonek"/>
    </contour>
    <contour>
      <point x="128" y="427" type="move" name="top"/>
    </contour>
  </outline>
</glyph>
<glyph name="lacute" format="1">
  <advance width="265"/>
  <unicode hex="013A"/>
  <outline>
    <contour>
      <point x="280" y="853"/>
      <point x="228" y="885"/>
      <point x="210" y="885" type="curve" smooth="yes"/>
      <point x="201" y="885"/>
      <point x="194" y="880"/>
      <point x="178" y="868" type="curve" smooth="yes"/>
      <point x="65" y="786" type="line" smooth="yes"/>
      <point x="49" y="774"/>
      <point x="43" y="769"/>
      <point x="43" y="760" type="curve" smooth="yes"/>
      <point x="43" y="752"/>
      <point x="48" y="748"/>
      <point x="59" y="748" type="curve" smooth="yes"/>
      <point x="65" y="748"/>
      <point x="73" y="750"/>
      <point x="78" y="752" type="curve" smooth="yes"/>
      <point x="262" y="815" type="line" smooth="yes"/>
      <point x="274" y="819"/>
      <point x="280" y="825"/>
      <point x="280" y="832" type="curve" smooth="yes"/>
    </contour>
    <component base="l"/>
  </outline>
</glyph>
<glyph name="oe" format="1">
  <advance width="770"/>
  <unicode hex="0153"/>
  <outline>
    <contour>
      <point x="484" y="437"/>
      <point x="434" y="423"/>
      <point x="396" y="393" type="curve"/>
      <point x="359" y="422"/>
      <point x="309" y="437"/>
      <point x="246" y="437" type="curve" smooth="yes"/>
      <point x="90" y="437"/>
      <point x="15" y="359"/>
      <point x="15" y="214" type="curve" smooth="yes"/>
      <point x="15" y="67"/>
      <point x="90" y="-10"/>
      <point x="246" y="-10" type="curve" smooth="yes"/>
      <point x="309" y="-10"/>
      <point x="358" y="4"/>
      <point x="395" y="33" type="curve"/>
      <point x="432" y="4"/>
      <point x="483" y="-10"/>
      <point x="549" y="-10" type="curve" smooth="yes"/>
      <point x="651" y="-10"/>
      <point x="719" y="28"/>
      <point x="751" y="93" type="curve"/>
      <point x="723" y="112" type="line"/>
      <point x="704" y="74"/>
      <point x="660" y="33"/>
      <point x="593" y="33" type="curve" smooth="yes"/>
      <point x="509" y="34"/>
      <point x="467" y="95"/>
      <point x="467" y="207" type="curve"/>
      <point x="755" y="207" type="line"/>
      <point x="755" y="246" type="line" smooth="yes"/>
      <point x="755" y="372"/>
      <point x="669" y="437"/>
      <point x="546" y="437" type="curve" smooth="yes"/>
    </contour>
    <contour>
      <point x="300" y="400"/>
      <point x="321" y="353"/>
      <point x="321" y="212" type="curve" smooth="yes"/>
      <point x="321" y="74"/>
      <point x="300" y="27"/>
      <point x="246" y="27" type="curve" smooth="yes"/>
      <point x="195" y="27"/>
      <point x="171" y="74"/>
      <point x="171" y="212" type="curve" smooth="yes"/>
      <point x="171" y="353"/>
      <point x="195" y="400"/>
      <point x="246" y="400" type="curve" smooth="yes"/>
    </contour>
    <contour>
      <point x="588" y="400"/>
      <point x="605" y="358"/>
      <point x="605" y="275" type="curve" smooth="yes"/>
      <point x="605" y="248"/>
      <point x="597" y="242"/>
      <point x="585" y="242" type="curve" smooth="yes"/>
      <point x="468" y="242" type="line"/>
      <point x="468" y="328"/>
      <point x="488" y="400"/>
      <point x="542" y="400" type="curve" smooth="yes"/>
    </contour>
    <contour>
      <point x="397" y="420" type="move" name="top"/>
    </contour>
  </outline>
</glyph>
<glyph name="florin" format="1">
  <advance width="496"/>
  <unicode hex="0192"/>
  <outline>
    <contour>
      <point x="298" y="365" type="line"/>
      <point x="316" y="508"/>
      <point x="338" y="571"/>
      <point x="367" y="571" type="curve" smooth="yes"/>
      <point x="378" y="571"/>
      <point x="385" y="562"/>
      <point x="385" y="549" type="curve" smooth="yes"/>
      <point x="385" y="534"/>
      <point x="376" y="518"/>
      <point x="376" y="501" type="curve" smooth="yes"/>
      <point x="376" y="473"/>
      <point x="399" y="454"/>
      <point x="438" y="454" type="curve" smooth="yes"/>
      <point x="495" y="454"/>
      <point x="506" y="496"/>
      <point x="506" y="518" type="curve" smooth="yes"/>
      <point x="506" y="568"/>
      <point x="452" y="607"/>
      <point x="378" y="607" type="curve" smooth="yes"/>
      <point x="241" y="607"/>
      <point x="179" y="511"/>
      <point x="144" y="339" type="curve" smooth="yes"/>
      <point x="94" y="95" type="line" smooth="yes"/>
      <point x="63" y="-55"/>
      <point x="58" y="-152"/>
      <point x="17" y="-152" type="curve" smooth="yes"/>
      <point x="6" y="-152"/>
      <point x="-2" y="-145"/>
      <point x="-2" y="-131" type="curve" smooth="yes"/>
      <point x="-2" y="-116"/>
      <point x="7" y="-97"/>
      <point x="7" y="-80" type="curve" smooth="yes"/>
      <point x="7" y="-54"/>
      <point x="-16" y="-35"/>
      <point x="-53" y="-35" type="curve" smooth="yes"/>
      <point x="-95" y="-35"/>
      <point x="-123" y="-59"/>
      <point x="-123" y="-99" type="curve" smooth="yes"/>
      <point x="-123" y="-166"/>
      <point x="-45" y="-188"/>
      <point x="12" y="-188" type="curve" smooth="yes"/>
      <point x="155" y="-188"/>
      <point x="212" y="-47"/>
      <point x="240" y="87" type="curve" smooth="yes"/>
    </contour>
    <contour>
      <point x="359" y="324" type="line"/>
      <point x="414" y="356" type="line"/>
      <point x="414" y="365" type="line"/>
      <point x="74" y="365" type="line"/>
      <point x="37" y="324" type="line"/>
    </contour>
  </outline>
</glyph>
<glyph name="caron" format="1">
  <advance width="382"/>
  <unicode hex="02C7"/>
  <outline>
    <contour>
      <point x="35" y="639"/>
      <point x="69" y="611"/>
      <point x="110" y="564" type="curve" smooth="yes"/>
      <point x="133" y="540" type="line"/>
      <point x="157" y="516" type="line" smooth="yes"/>
      <point x="167" y="506"/>
      <point x="179" y="501"/>
      <point x="191" y="501" type="curve" smooth="yes"/>
      <point x="203" y="501"/>
      <point x="215" y="506"/>
      <point x="225" y="516" type="curve" smooth="yes"/>
      <point x="249" y="540" type="line"/>
      <point x="272" y="564" type="line" smooth="yes"/>
      <point x="313" y="611"/>
      <point x="347" y="639"/>
      <point x="347" y="649" type="curve" smooth="yes"/>
      <point x="347" y="652"/>
      <point x="345" y="657"/>
      <point x="335" y="657" type="curve" smooth="yes"/>
      <point x="321" y="657"/>
      <point x="308" y="650"/>
      <point x="300" y="645" type="curve" smooth="yes"/>
      <point x="191" y="581" type="line"/>
      <point x="82" y="645" type="line" smooth="yes"/>
      <point x="74" y="650"/>
      <point x="61" y="657"/>
      <point x="48" y="657" type="curve" smooth="yes"/>
      <point x="37" y="657"/>
      <point x="35" y="652"/>
      <point x="35" y="649" type="curve" smooth="yes"/>
    </contour>
    <contour>
      <point x="191" y="420" type="move" name="_top"/>
    </contour>
  </outline>
</glyph>
<glyph name="dotaccent" format="1">
  <advance width="263"/>
  <unicode hex="02D9"/>
  <outline>
    <contour>
      <point x="47" y="552"/>
      <point x="82" y="527"/>
      <point x="131" y="527" type="curve" smooth="yes"/>
      <point x="181" y="527"/>
      <point x="216" y="552"/>
      <point x="216" y="595" type="curve" smooth="yes"/>
      <point x="216" y="636"/>
      <point x="181" y="662"/>
      <point x="131" y="662" type="curve" smooth="yes"/>
      <point x="82" y="662"/>
      <point x="47" y="636"/>
      <point x="47" y="595" type="curve" smooth="yes"/>
    </contour>
    <contour>
      <point x="131" y="420" type="move" name="_top"/>
    </contour>
  </outline>
</glyph>
<glyph name="ring" format="1">
  <advance width="237"/>
  <unicode hex="02DA"/>
  <outline>
    <contour>
      <point x="30" y="526"/>
      <point x="66" y="491"/>
      <point x="118" y="491" type="curve" smooth="yes"/>
      <point x="170" y="491"/>
      <point x="207" y="526"/>
      <point x="207" y="575" type="curve" smooth="yes"/>
      <point x="207" y="624"/>
      <point x="170" y="658"/>
      <point x="118" y="658" type="curve" smooth="yes"/>
      <point x="68" y="658"/>
      <point x="30" y="622"/>
      <point x="30" y="575" type="curve" smooth="yes"/>
    </contour>
    <contour>
      <point x="82" y="599"/>
      <point x="96" y="615"/>
      <point x="118" y="615" type="curve" smooth="yes"/>
      <point x="140" y="615"/>
      <point x="155" y="599"/>
      <point x="155" y="575" type="curve" smooth="yes"/>
      <point x="155" y="550"/>
      <point x="140" y="534"/>
      <point x="118" y="534" type="curve" smooth="yes"/>
      <point x="96" y="534"/>
      <point x="82" y="550"/>
      <point x="82" y="575" type="curve" smooth="yes"/>
    </contour>
    <contour>
      <point x="119" y="420" type="move" name="_top"/>
    </contour>
  </outline>
</glyph>
<glyph name="Omega" format="1">
  <advance width="670"/>
  <unicode hex="03A9"/>
  <outline>
    <contour>
      <point x="611" y="169" type="line"/>
      <point x="605" y="123"/>
      <point x="582" y="105"/>
      <point x="529" y="105" type="curve" smooth="yes"/>
      <point x="442" y="105" type="line"/>
      <point x="412" y="48" type="line"/>
      <point x="542" y="155"/>
      <point x="624" y="219"/>
      <point x="624" y="359" type="curve" smooth="yes"/>
      <point x="624" y="497"/>
      <point x="517" y="607"/>
      <point x="335" y="607" type="curve" smooth="yes"/>
      <point x="153" y="607"/>
      <point x="46" y="497"/>
      <point x="46" y="359" type="curve" smooth="yes"/>
      <point x="46" y="219"/>
      <point x="128" y="155"/>
      <point x="258" y="48" type="curve"/>
      <point x="228" y="105" type="line"/>
      <point x="141" y="105" type="line" smooth="yes"/>
      <point x="88" y="105"/>
      <point x="65" y="123"/>
      <point x="59" y="169" type="curve"/>
      <point x="23" y="169" type="line"/>
      <point x="31" y="115"/>
      <point x="43" y="27"/>
      <point x="43" y="-3" type="curve"/>
      <point x="53" y="0"/>
      <point x="88" y="0"/>
      <point x="136" y="0" type="curve" smooth="yes"/>
      <point x="287" y="0" type="line"/>
      <point x="289" y="55" type="line"/>
      <point x="241" y="126"/>
      <point x="202" y="206"/>
      <point x="202" y="349" type="curve" smooth="yes"/>
      <point x="202" y="519"/>
      <point x="247" y="570"/>
      <point x="335" y="570" type="curve" smooth="yes"/>
      <point x="423" y="570"/>
      <point x="468" y="519"/>
      <point x="468" y="349" type="curve" smooth="yes"/>
      <point x="468" y="206"/>
      <point x="429" y="126"/>
      <point x="381" y="55" type="curve"/>
      <point x="383" y="0" type="line"/>
      <point x="534" y="0" type="line" smooth="yes"/>
      <point x="582" y="0"/>
      <point x="617" y="0"/>
      <point x="627" y="-3" type="curve"/>
      <point x="627" y="27"/>
      <point x="639" y="115"/>
      <point x="647" y="169" type="curve"/>
    </contour>
  </outline>
</glyph>
<glyph name="quoteright" format="1">
  <advance width="269"/>
  <unicode hex="2019"/>
  <outline>
    <contour>
      <point x="103" y="379" type="line"/>
      <point x="173" y="409"/>
      <point x="242" y="460"/>
      <point x="242" y="546" type="curve" smooth="yes"/>
      <point x="242" y="593"/>
      <point x="206" y="638"/>
      <point x="150" y="638" type="curve" smooth="yes"/>
      <point x="92" y="638"/>
      <point x="64" y="603"/>
      <point x="64" y="563" type="curve" smooth="yes"/>
      <point x="64" y="522"/>
      <point x="97" y="500"/>
      <point x="130" y="500" type="curve" smooth="yes"/>
      <point x="148" y="500"/>
      <point x="156" y="492"/>
      <point x="156" y="478" type="curve" smooth="yes"/>
      <point x="156" y="445"/>
      <point x="125" y="419"/>
      <point x="92" y="405" type="curve"/>
    </contour>
  </outline>
</glyph>
<glyph name="dagger" format="1">
  <advance width="528"/>
  <unicode hex="2020"/>
  <outline>
    <contour>
      <point x="240" y="410" type="line"/>
      <point x="245" y="352"/>
      <point x="189" y="332"/>
      <point x="189" y="299" type="curve" smooth="yes"/>
      <point x="189" y="280"/>
      <point x="212" y="243"/>
      <point x="217" y="156" type="curve" smooth="yes"/>
      <point x="221" y="11"/>
      <point x="236" y="-150"/>
      <point x="259" y="-150" type="curve" smooth="yes"/>
      <point x="282" y="-150"/>
      <point x="297" y="11"/>
      <point x="301" y="156" type="curve" smooth="yes"/>
      <point x="306" y="243"/>
      <point x="329" y="280"/>
      <point x="329" y="299" type="curve" smooth="yes"/>
      <point x="329" y="332"/>
      <point x="273" y="343"/>
      <point x="278" y="410" type="curve"/>
    </contour>
    <contour>
      <point x="278" y="405" type="line"/>
      <point x="299" y="440"/>
      <point x="319" y="441"/>
      <point x="319" y="467" type="curve" smooth="yes"/>
      <point x="319" y="493"/>
      <point x="287" y="493"/>
      <point x="287" y="514" type="curve" smooth="yes"/>
      <point x="287" y="541"/>
      <point x="337" y="537"/>
      <point x="337" y="574" type="curve" smooth="yes"/>
      <point x="337" y="608"/>
      <point x="304" y="640"/>
      <point x="259" y="640" type="curve" smooth="yes"/>
      <point x="214" y="640"/>
      <point x="181" y="608"/>
      <point x="181" y="574" type="curve" smooth="yes"/>
      <point x="181" y="537"/>
      <point x="231" y="541"/>
      <point x="231" y="514" type="curve" smooth="yes"/>
      <point x="231" y="496"/>
      <point x="199" y="493"/>
      <point x="199" y="467" type="curve" smooth="yes"/>
      <point x="199" y="441"/>
      <point x="219" y="440"/>
      <point x="240" y="405" type="curve"/>
    </contour>
    <contour>
      <point x="265" y="403" type="line"/>
      <point x="292" y="377"/>
      <point x="313" y="370"/>
      <point x="334" y="370" type="curve" smooth="yes"/>
      <point x="355" y="370"/>
      <point x="359" y="387"/>
      <point x="381" y="387" type="curve" smooth="yes"/>
      <point x="407" y="387"/>
      <point x="404" y="348"/>
      <point x="442" y="348" type="curve" smooth="yes"/>
      <point x="472" y="348"/>
      <point x="483" y="373"/>
      <point x="483" y="402" type="curve" smooth="yes"/>
      <point x="483" y="445"/>
      <point x="460" y="468"/>
      <point x="428" y="468" type="curve" smooth="yes"/>
      <point x="358" y="468"/>
      <point x="371" y="416"/>
      <point x="263" y="416" type="curve"/>
      <point x="255" y="416" type="line"/>
      <point x="149" y="416"/>
      <point x="155" y="468"/>
      <point x="90" y="468" type="curve" smooth="yes"/>
      <point x="58" y="468"/>
      <point x="35" y="445"/>
      <point x="35" y="402" type="curve" smooth="yes"/>
      <point x="35" y="373"/>
      <point x="46" y="348"/>
      <point x="77" y="348" type="curve" smooth="yes"/>
      <point x="113" y="348"/>
      <point x="112" y="387"/>
      <point x="139" y="387" type="curve" smooth="yes"/>
      <point x="159" y="387"/>
      <point x="163" y="370"/>
      <point x="184" y="370" type="curve" smooth="yes"/>
      <point x="205" y="370"/>
      <point x="226" y="377"/>
      <point x="253" y="403" type="curve"/>
    </contour>
  </outline>
</glyph>
<glyph name="bullet" format="1">
  <advance width="467"/>
  <unicode hex="2022"/>
  <outline>
    <contour>
      <point x="75" y="167"/>
      <point x="140" y="111"/>
      <point x="234" y="111" type="curve" smooth="yes"/>
      <point x="323" y="111"/>
      <point x="392" y="166"/>
      <point x="392" y="247" type="curve" smooth="yes"/>
      <point x="392" y="328"/>
      <point x="324" y="383"/>
      <point x="234" y="383" type="curve" smooth="yes"/>
      <point x="144" y="383"/>
      <point x="75" y="328"/>
      <point x="75" y="247" type="curve" smooth="yes"/>
    </contour>
  </outline>
</glyph>
<glyph name="perthousand" format="1">
  <advance width="980"/>
  <unicode hex="2030"/>
  <outline>
    <contour>
      <point x="303" y="52"/>
      <point x="354" y="-10"/>
      <point x="461" y="-10" type="curve" smooth="yes"/>
      <point x="567" y="-10"/>
      <point x="620" y="50"/>
      <point x="620" y="129" type="curve" smooth="yes"/>
      <point x="620" y="209"/>
      <point x="566" y="269"/>
      <point x="461" y="269" type="curve" smooth="yes"/>
      <point x="361" y="269"/>
      <point x="303" y="211"/>
      <point x="303" y="129" type="curve" smooth="yes"/>
    </contour>
    <contour>
      <point x="422" y="217"/>
      <point x="431" y="243"/>
      <point x="461" y="243" type="curve" smooth="yes"/>
      <point x="492" y="243"/>
      <point x="502" y="220"/>
      <point x="502" y="130" type="curve" smooth="yes"/>
      <point x="502" y="42"/>
      <point x="492" y="18"/>
      <point x="461" y="18" type="curve" smooth="yes"/>
      <point x="431" y="18"/>
      <point x="422" y="40"/>
      <point x="422" y="130" type="curve" smooth="yes"/>
    </contour>
    <contour>
      <point x="10" y="390"/>
      <point x="61" y="328"/>
      <point x="168" y="328" type="curve" smooth="yes"/>
      <point x="274" y="328"/>
      <point x="327" y="388"/>
      <point x="327" y="467" type="curve" smooth="yes"/>
      <point x="327" y="547"/>
      <point x="273" y="607"/>
      <point x="168" y="607" type="curve" smooth="yes"/>
      <point x="68" y="607"/>
      <point x="10" y="549"/>
      <point x="10" y="467" type="curve" smooth="yes"/>
    </contour>
    <contour>
      <point x="129" y="555"/>
      <point x="138" y="581"/>
      <point x="168" y="581" type="curve" smooth="yes"/>
      <point x="199" y="581"/>
      <point x="209" y="558"/>
      <point x="209" y="468" type="curve" smooth="yes"/>
      <point x="209" y="380"/>
      <point x="199" y="356"/>
      <point x="168" y="356" type="curve" smooth="yes"/>
      <point x="138" y="356"/>
      <point x="129" y="378"/>
      <point x="129" y="468" type="curve" smooth="yes"/>
    </contour>
    <contour>
      <point x="653" y="52"/>
      <point x="704" y="-10"/>
      <point x="811" y="-10" type="curve" smooth="yes"/>
      <point x="917" y="-10"/>
      <point x="970" y="50"/>
      <point x="970" y="129" type="curve" smooth="yes"/>
      <point x="970" y="209"/>
      <point x="916" y="269"/>
      <point x="811" y="269" type="curve" smooth="yes"/>
      <point x="711" y="269"/>
      <point x="653" y="211"/>
      <point x="653" y="129" type="curve" smooth="yes"/>
    </contour>
    <contour>
      <point x="772" y="217"/>
      <point x="781" y="243"/>
      <point x="811" y="243" type="curve" smooth="yes"/>
      <point x="842" y="243"/>
      <point x="852" y="220"/>
      <point x="852" y="130" type="curve" smooth="yes"/>
      <point x="852" y="42"/>
      <point x="842" y="18"/>
      <point x="811" y="18" type="curve" smooth="yes"/>
      <point x="781" y="18"/>
      <point x="772" y="40"/>
      <point x="772" y="130" type="curve" smooth="yes"/>
    </contour>
    <component base="fraction" xOffset="225"/>
  </outline>
</glyph>
<glyph name="guilsinglleft" format="1">
  <advance width="315"/>
  <unicode hex="2039"/>
  <outline>
    <contour>
      <point x="219" y="41" type="line"/>
      <point x="265" y="41" type="line"/>
      <point x="167" y="212" type="line"/>
      <point x="265" y="383" type="line"/>
      <point x="219" y="383" type="line"/>
      <point x="20" y="212" type="line"/>
    </contour>
  </outline>
</glyph>
<glyph name="fraction" format="1">
  <advance width="139"/>
  <unicode hex="2044"/>
  <outline>
    <contour>
      <point x="-104" y="-22" type="line"/>
      <point x="324" y="580" type="line"/>
      <point x="280" y="610" type="line"/>
      <point x="-147" y="11" type="line"/>
    </contour>
  </outline>
</glyph>
<glyph name="uni2113" format="1">
  <advance width="445"/>
  <unicode hex="2113"/>
  <outline>
    <contour>
      <point x="156" y="245" type="line"/>
      <point x="119" y="222"/>
      <point x="74" y="200"/>
      <point x="21" y="178" type="curve"/>
      <point x="31" y="146" type="line"/>
      <point x="80" y="166"/>
      <point x="123" y="187"/>
      <point x="161" y="209" type="curve"/>
    </contour>
    <contour>
      <point x="202" y="223" type="line"/>
      <point x="369" y="314"/>
      <point x="397" y="412"/>
      <point x="397" y="484" type="curve" smooth="yes"/>
      <point x="397" y="564"/>
      <point x="352" y="607"/>
      <point x="269" y="607" type="curve" smooth="yes"/>
      <point x="128" y="607"/>
      <point x="99" y="492"/>
      <point x="93" y="387" type="curve" smooth="yes"/>
      <point x="80" y="153"/>
      <point x="84" y="140"/>
      <point x="84" y="133" type="curve" smooth="yes"/>
      <point x="84" y="36"/>
      <point x="148" y="-6"/>
      <point x="229" y="-6" type="curve" smooth="yes"/>
      <point x="324" y="-6"/>
      <point x="347" y="26"/>
      <point x="382" y="90" type="curve"/>
      <point x="352" y="105" type="line"/>
      <point x="333" y="57"/>
      <point x="307" y="33"/>
      <point x="282" y="33" type="curve" smooth="yes"/>
      <point x="245" y="33"/>
      <point x="230" y="52"/>
      <point x="230" y="107" type="curve" smooth="yes"/>
      <point x="230" y="198"/>
      <point x="240" y="337"/>
      <point x="240" y="384" type="curve" smooth="yes"/>
      <point x="240" y="406"/>
      <point x="238" y="431"/>
      <point x="238" y="454" type="curve" smooth="yes"/>
      <point x="238" y="495"/>
      <point x="240" y="570"/>
      <point x="301" y="570" type="curve" smooth="yes"/>
      <point x="337" y="570"/>
      <point x="356" y="537"/>
      <point x="356" y="475" type="curve" smooth="yes"/>
      <point x="356" y="387"/>
      <point x="308" y="322"/>
      <point x="196" y="260" type="curve"/>
    </contour>
  </outline>
</glyph>
<glyph name="radical" format="1">
  <advance width="460"/>
  <unicode hex="221A"/>
  <outline>
    <contour>
      <point x="329" y="121" type="line"/>
      <point x="234" y="377" type="line"/>
      <point x="88" y="349" type="line"/>
      <point x="263" y="-95" type="line"/>
    </contour>
    <contour>
      <point x="22" y="296" type="line"/>
      <point x="237" y="367" type="line"/>
      <point x="225" y="402" type="line"/>
      <point x="10" y="331" type="line"/>
    </contour>
    <contour>
      <point x="263" y="-95" type="line"/>
      <point x="300" y="-95" type="line"/>
      <point x="492" y="786" type="line"/>
      <point x="456" y="786" type="line"/>
    </contour>
  </outline>
</glyph>
<glyph name="infinity" format="1">
  <advance width="549"/>
  <unicode hex="221E"/>
  <outline>
    <contour>
      <point x="222" y="420"/>
      <point x="241" y="198"/>
      <point x="97" y="198" type="curve" smooth="yes"/>
      <point x="58" y="198"/>
      <point x="35" y="214"/>
      <point x="35" y="244" type="curve" smooth="yes"/>
      <point x="35" y="282"/>
      <point x="70" y="301"/>
      <point x="128" y="301" type="curve" smooth="yes"/>
      <point x="181" y="301"/>
      <point x="218" y="285"/>
      <point x="245" y="269" type="curve"/>
      <point x="259" y="287" type="line"/>
      <point x="259" y="364"/>
      <point x="198" y="420"/>
      <point x="127" y="420" type="curve" smooth="yes"/>
      <point x="48" y="420"/>
      <point x="0" y="349"/>
      <point x="0" y="256" type="curve" smooth="yes"/>
      <point x="0" y="158"/>
      <point x="54" y="79"/>
      <point x="156" y="79" type="curve" smooth="yes"/>
      <point x="327" y="79"/>
      <point x="308" y="301"/>
      <point x="453" y="301" type="curve" smooth="yes"/>
      <point x="492" y="301"/>
      <point x="514" y="285"/>
      <point x="514" y="255" type="curve" smooth="yes"/>
      <point x="514" y="218"/>
      <point x="479" y="198"/>
      <point x="422" y="198" type="curve" smooth="yes"/>
      <point x="372" y="198"/>
      <point x="332" y="213"/>
      <point x="304" y="230" type="curve"/>
      <point x="290" y="212" type="line"/>
      <point x="290" y="136"/>
      <point x="351" y="79"/>
      <point x="422" y="79" type="curve" smooth="yes"/>
      <point x="501" y="79"/>
      <point x="549" y="151"/>
      <point x="549" y="243" type="curve" smooth="yes"/>
      <point x="549" y="341"/>
      <point x="495" y="420"/>
      <point x="393" y="420" type="curve" smooth="yes"/>
    </contour>
  </outline>
</glyph>
<glyph name="integral" format="1">
  <advance width="519"/>
  <unicode hex="222B"/>
  <outline>
    <contour>
      <point x="244" y="779"/>
      <point x="178" y="653"/>
      <point x="178" y="494" type="curve" smooth="yes"/>
      <point x="178" y="363"/>
      <point x="205" y="98"/>
      <point x="205" y="52" type="curve" smooth="yes"/>
      <point x="205" y="-73"/>
      <point x="195" y="-126"/>
      <point x="167" y="-126" type="curve" smooth="yes"/>
      <point x="139" y="-126"/>
      <point x="144" y="-100"/>
      <point x="144" y="-76" type="curve" smooth="yes"/>
      <point x="144" y="-45"/>
      <point x="138" y="-15"/>
      <point x="81" y="-15" type="curve" smooth="yes"/>
      <point x="44" y="-15"/>
      <point x="21" y="-41"/>
      <point x="21" y="-78" type="curve" smooth="yes"/>
      <point x="21" y="-129"/>
      <point x="79" y="-167"/>
      <point x="143" y="-167" type="curve" smooth="yes"/>
      <point x="275" y="-167"/>
      <point x="341" y="-41"/>
      <point x="341" y="118" type="curve" smooth="yes"/>
      <point x="341" y="229"/>
      <point x="314" y="494"/>
      <point x="314" y="560" type="curve" smooth="yes"/>
      <point x="314" y="685"/>
      <point x="324" y="738"/>
      <point x="352" y="738" type="curve" smooth="yes"/>
      <point x="380" y="738"/>
      <point x="375" y="712"/>
      <point x="375" y="688" type="curve" smooth="yes"/>
      <point x="375" y="657"/>
      <point x="381" y="627"/>
      <point x="438" y="627" type="curve" smooth="yes"/>
      <point x="475" y="627"/>
      <point x="498" y="657"/>
      <point x="498" y="690" type="curve" smooth="yes"/>
      <point x="498" y="744"/>
      <point x="440" y="779"/>
      <point x="376" y="779" type="curve" smooth="yes"/>
    </contour>
  </outline>
</glyph>
<glyph name="approxequal" format="1">
  <advance width="460"/>
  <unicode hex="2248"/>
  <outline>
    <contour>
      <point x="59" y="268" type="line"/>
      <point x="90" y="313"/>
      <point x="108" y="322"/>
      <point x="141" y="322" type="curve" smooth="yes"/>
      <point x="196" y="322"/>
      <point x="268" y="257"/>
      <point x="325" y="257" type="curve" smooth="yes"/>
      <point x="369" y="257"/>
      <point x="410" y="287"/>
      <point x="439" y="335" type="curve"/>
      <point x="405" y="367" type="line"/>
      <point x="374" y="329"/>
      <point x="358" y="315"/>
      <point x="325" y="315" type="curve" smooth="yes"/>
      <point x="270" y="315"/>
      <point x="200" y="380"/>
      <point x="141" y="380" type="curve" smooth="yes"/>
      <point x="97" y="380"/>
      <point x="55" y="356"/>
      <point x="26" y="300" type="curve"/>
    </contour>
    <contour>
      <point x="59" y="78" type="line"/>
      <point x="90" y="123"/>
      <point x="108" y="132"/>
      <point x="141" y="132" type="curve" smooth="yes"/>
      <point x="196" y="132"/>
      <point x="268" y="67"/>
      <point x="325" y="67" type="curve" smooth="yes"/>
      <point x="369" y="67"/>
      <point x="410" y="97"/>
      <point x="439" y="145" type="curve"/>
      <point x="405" y="181" type="line"/>
      <point x="374" y="139"/>
      <point x="358" y="125"/>
      <point x="325" y="125" type="curve" smooth="yes"/>
      <point x="270" y="125"/>
      <point x="200" y="190"/>
      <point x="141" y="190" type="curve" smooth="yes"/>
      <point x="97" y="190"/>
      <point x="55" y="166"/>
      <point x="26" y="114" type="curve"/>
    </contour>
  </outline>
</glyph>
<glyph name="notequal" format="1">
  <advance width="460"/>
  <unicode hex="2260"/>
  <outline>
    <contour>
      <point x="171" y="-5" type="line"/>
      <point x="326" y="444" type="line"/>
      <point x="277" y="456" type="line"/>
      <point x="121" y="9" type="line"/>
    </contour>
    <component base="equal"/>
  </outline>
</glyph>
<glyph name="lozenge" format="1">
  <advance width="460"/>
  <unicode hex="25CA"/>
  <outline>
    <contour>
      <point x="451" y="281" type="line"/>
      <point x="242" y="645" type="line"/>
      <point x="214" y="645" type="line"/>
      <point x="9" y="286" type="line"/>
      <point x="218" y="-79" type="line"/>
      <point x="246" y="-79" type="line"/>
    </contour>
    <contour>
      <point x="231" y="-11" type="line"/>
      <point x="221" y="17" type="line"/>
      <point x="69" y="285" type="line"/>
      <point x="218" y="549" type="line"/>
      <point x="229" y="577" type="line"/>
      <point x="239" y="549" type="line"/>
      <point x="391" y="281" type="line"/>
      <point x="242" y="17" type="line"/>
    </contour>
  </outline>
</glyph>
<glyph name="uniE000" format="1">
  <advance width="420"/>
  <unicode hex="E000"/>
  <outline>
    <contour>
      <point x="0" y="0" type="line"/>
      <point x="420" y="0" type="line"/>
      <point x="420" y="420" type="line"/>
      <point x="0" y="420" type="line"/>
    </contour>
  </outline>
</glyph>
<glyph name="caron.alt" format="1">
  <advance width="331"/>
  <outline>
    <contour>
      <point x="143" y="428" type="line"/>
      <point x="188" y="450"/>
      <point x="237" y="500"/>
      <point x="237" y="555" type="curve" smooth="yes"/>
      <point x="237" y="599"/>
      <point x="205" y="628"/>
      <point x="162" y="628" type="curve" smooth="yes"/>
      <point x="126" y="628"/>
      <point x="94" y="608"/>
      <point x="94" y="569" type="curve" smooth="yes"/>
      <point x="94" y="542"/>
      <point x="110" y="524"/>
      <point x="134" y="524" type="curve" smooth="yes"/>
      <point x="146" y="524"/>
      <point x="157" y="519"/>
      <point x="157" y="503" type="curve" smooth="yes"/>
      <point x="157" y="482"/>
      <point x="137" y="464"/>
      <point x="120" y="453" type="curve"/>
    </contour>
    <contour>
      <point x="145" y="598" type="move" name="_topright"/>
    </contour>
  </outline>
</glyph>
<glyph name="f.ss01" format="1">
  <advance width="315"/>
  <outline>
    <contour>
      <point x="295" y="0" type="line"/>
      <point x="295" y="36" type="line"/>
      <point x="224" y="34" type="line" smooth="yes"/>
      <point x="215" y="34"/>
      <point x="211" y="40"/>
      <point x="211" y="53" type="curve" smooth="yes"/>
      <point x="211" y="385" type="line"/>
      <point x="295" y="385" type="line"/>
      <point x="295" y="420" type="line"/>
      <point x="210" y="420" type="line"/>
      <point x="210" y="470" type="line" smooth="yes"/>
      <point x="210" y="562"/>
      <point x="173" y="583"/>
      <point x="173" y="637" type="curve" smooth="yes"/>
      <point x="173" y="682"/>
      <point x="184" y="699"/>
      <point x="199" y="699" type="curve" smooth="yes"/>
      <point x="214" y="699"/>
      <point x="218" y="684"/>
      <point x="218" y="675" type="curve" smooth="yes"/>
      <point x="218" y="660"/>
      <point x="212" y="644"/>
      <point x="212" y="627" type="curve" smooth="yes"/>
      <point x="212" y="601"/>
      <point x="242" y="586"/>
      <point x="267" y="586" type="curve" smooth="yes"/>
      <point x="312" y="586"/>
      <point x="329" y="617"/>
      <point x="329" y="645" type="curve" smooth="yes"/>
      <point x="329" y="705"/>
      <point x="276" y="736"/>
      <point x="207" y="736" type="curve" smooth="yes"/>
      <point x="87" y="736"/>
      <point x="65" y="630"/>
      <point x="65" y="556" type="curve" smooth="yes"/>
      <point x="65" y="420" type="line"/>
      <point x="26" y="420" type="line"/>
      <point x="26" y="385" type="line"/>
      <point x="65" y="385" type="line"/>
      <point x="65" y="53" type="line" smooth="yes"/>
      <point x="65" y="40"/>
      <point x="61" y="34"/>
      <point x="52" y="34" type="curve"/>
      <point x="15" y="36" type="line"/>
      <point x="15" y="0" type="line"/>
    </contour>
  </outline>
</glyph>
